<svg xmlns="http://www.w3.org/2000/svg" viewBox="0 0 1000 500" width="1000" height="500" font-family="'Inter','Segoe UI','Helvetica Neue',Arial,sans-serif" role="img" aria-label="Trust Recovery Transient">

<defs>
  <filter id="panelShadow" x="-5%" y="-5%" width="110%" height="115%">
    <feGaussianBlur in="SourceAlpha" stdDeviation="2.2"/>
    <feOffset dx="0" dy="2"/>
    <feComponentTransfer><feFuncA type="linear" slope="0.18"/></feComponentTransfer>
    <feMerge><feMergeNode/><feMergeNode in="SourceGraphic"/></feMerge>
  </filter>
  <filter id="pointShadow" x="-50%" y="-50%" width="200%" height="200%">
    <feGaussianBlur in="SourceAlpha" stdDeviation="1.4"/>
    <feOffset dx="0" dy="1"/>
    <feComponentTransfer><feFuncA type="linear" slope="0.35"/></feComponentTransfer>
    <feMerge><feMergeNode/><feMergeNode in="SourceGraphic"/></feMerge>
  </filter>
  <marker id="mArrow" viewBox="0 0 10 10" refX="9" refY="5" markerWidth="8" markerHeight="8" orient="auto-start-reverse">
    <path d="M0,0 L10,5 L0,10 z" fill="#0f172a"/>
  </marker>
</defs>

<rect width="100%" height="100%" fill="#ffffff"/>
<text x="500.0" y="36" text-anchor="middle" font-size="20" font-weight="800" fill="#0f172a">Trust Recovery Transient</text>
<text x="500.0" y="60" text-anchor="middle" font-size="13" fill="#475569">500 slots  ·  attack burst slots 200–300  ·  10–90% recovery in 21 slots</text>
<g filter="url(#panelShadow)"><rect x="90" y="90" width="760" height="330" fill="#fdfefe" stroke="#cbd5e1" stroke-width="1"/></g><line x1="90" y1="398.0" x2="850" y2="398.0" stroke="#f1f5f9" stroke-width="0.6"/><line x1="90" y1="376.0" x2="850" y2="376.0" stroke="#f1f5f9" stroke-width="0.6"/><line x1="90" y1="332.0" x2="850" y2="332.0" stroke="#f1f5f9" stroke-width="0.6"/><line x1="90" y1="310.0" x2="850" y2="310.0" stroke="#f1f5f9" stroke-width="0.6"/><line x1="90" y1="266.0" x2="850" y2="266.0" stroke="#f1f5f9" stroke-width="0.6"/><line x1="90" y1="244.0" x2="850" y2="244.0" stroke="#f1f5f9" stroke-width="0.6"/><line x1="90" y1="200.0" x2="850" y2="200.0" stroke="#f1f5f9" stroke-width="0.6"/><line x1="90" y1="178.0" x2="850" y2="178.0" stroke="#f1f5f9" stroke-width="0.6"/><line x1="90" y1="134.0" x2="850" y2="134.0" stroke="#f1f5f9" stroke-width="0.6"/><line x1="90" y1="112.0" x2="850" y2="112.0" stroke="#f1f5f9" stroke-width="0.6"/><line x1="90" y1="420.0" x2="850" y2="420.0" stroke="#e2e8f0" stroke-width="1"/><text x="80" y="424.0" text-anchor="end" fill="#475569" font-size="11">0</text><line x1="90" y1="354.0" x2="850" y2="354.0" stroke="#e2e8f0" stroke-width="1"/><text x="80" y="358.0" text-anchor="end" fill="#475569" font-size="11">0.200</text><line x1="90" y1="288.0" x2="850" y2="288.0" stroke="#e2e8f0" stroke-width="1"/><text x="80" y="292.0" text-anchor="end" fill="#475569" font-size="11">0.400</text><line x1="90" y1="222.0" x2="850" y2="222.0" stroke="#e2e8f0" stroke-width="1"/><text x="80" y="226.0" text-anchor="end" fill="#475569" font-size="11">0.600</text><line x1="90" y1="156.0" x2="850" y2="156.0" stroke="#e2e8f0" stroke-width="1"/><text x="80" y="160.0" text-anchor="end" fill="#475569" font-size="11">0.800</text><line x1="90" y1="90.0" x2="850" y2="90.0" stroke="#e2e8f0" stroke-width="1"/><text x="80" y="94.0" text-anchor="end" fill="#475569" font-size="11">1</text><line x1="90.0" y1="90" x2="90.0" y2="420" stroke="#e2e8f0" stroke-width="1"/><text x="90.0" y="438" text-anchor="middle" fill="#475569" font-size="11">0</text><line x1="242.3" y1="90" x2="242.3" y2="420" stroke="#e2e8f0" stroke-width="1"/><text x="242.3" y="438" text-anchor="middle" fill="#475569" font-size="11">100</text><line x1="394.6" y1="90" x2="394.6" y2="420" stroke="#e2e8f0" stroke-width="1"/><text x="394.6" y="438" text-anchor="middle" fill="#475569" font-size="11">200</text><line x1="546.9" y1="90" x2="546.9" y2="420" stroke="#e2e8f0" stroke-width="1"/><text x="546.9" y="438" text-anchor="middle" fill="#475569" font-size="11">300</text><line x1="699.2" y1="90" x2="699.2" y2="420" stroke="#e2e8f0" stroke-width="1"/><text x="699.2" y="438" text-anchor="middle" fill="#475569" font-size="11">400</text><text x="470.0" y="464" text-anchor="middle" fill="#0f172a" font-size="13" font-weight="600">Slot index  t</text><text transform="translate(38,255.0) rotate(-90)" text-anchor="middle" fill="#0f172a" font-size="13" font-weight="600">Trust  T(t)</text>
<rect x="394.6" y="90" width="152.3" height="330" fill="#fecaca" opacity="0.55"/>
<text x="470.8" y="108" text-anchor="middle" fill="#7f1d1d" font-size="12" font-weight="700">attack burst</text>
<line x1="90" y1="321.0" x2="850" y2="321.0" stroke="#b91c1c" stroke-width="1.5" stroke-dasharray="5 3"/><text x="844" y="316.0" text-anchor="end" fill="#b91c1c" font-size="11" font-weight="600">safety floor  T_safe = 0.30</text>
<polyline points="90.0,105.3 91.5,119.1 93.0,131.5 94.6,142.7 96.1,152.9 97.6,161.9 99.1,170.1 100.7,177.5 102.2,184.1 103.7,190.1 105.2,195.5 106.8,200.3 108.3,204.6 109.8,208.6 111.3,212.1 112.8,215.3 114.4,218.1 115.9,220.7 117.4,223.0 118.9,225.1 120.5,226.9 122.0,228.6 123.5,230.1 125.0,231.5 126.6,232.7 128.1,233.8 129.6,234.8 131.1,235.7 132.6,236.5 134.2,237.3 135.7,237.9 137.2,238.5 138.7,239.0 140.3,239.5 141.8,239.9 143.3,240.3 144.8,240.7 146.4,241.0 147.9,241.3 149.4,241.5 150.9,241.8 152.4,242.0 154.0,242.2 155.5,242.3 157.0,242.5 158.5,242.6 160.1,242.7 161.6,242.8 163.1,243.0 164.6,243.0 166.2,243.1 167.7,243.2 169.2,243.3 170.7,243.3 172.2,243.4 173.8,243.4 175.3,243.5 176.8,243.5 178.3,243.5 179.9,243.6 181.4,243.6 182.9,243.6 184.4,243.6 186.0,243.6 187.5,243.7 189.0,243.7 190.5,243.7 192.0,243.7 193.6,243.7 195.1,243.8 196.6,243.8 198.1,243.8 199.7,243.8 201.2,243.8 202.7,243.8 204.2,243.8 205.8,243.8 207.3,243.8 208.8,243.8 210.3,243.8 211.8,243.8 213.4,243.8 214.9,243.8 216.4,243.8 217.9,243.8 219.5,243.8 221.0,243.8 222.5,243.8 224.0,243.8 225.6,243.8 227.1,243.8 228.6,243.8 230.1,243.8 231.6,243.8 233.2,243.8 234.7,243.8 236.2,243.8 237.7,243.8 239.3,243.8 240.8,243.8 242.3,243.8 243.8,243.8 245.4,243.8 246.9,243.8 248.4,243.8 249.9,243.8 251.4,243.8 253.0,243.8 254.5,243.8 256.0,243.8 257.5,243.8 259.1,243.8 260.6,243.8 262.1,243.8 263.6,243.8 265.2,243.8 266.7,243.8 268.2,243.8 269.7,243.8 271.2,243.8 272.8,243.8 274.3,243.8 275.8,243.8 277.3,243.8 278.9,243.8 280.4,243.8 281.9,243.8 283.4,243.8 284.9,243.9 286.5,243.8 288.0,243.8 289.5,243.8 291.0,243.8 292.6,243.8 294.1,243.8 295.6,243.8 297.1,243.8 298.7,243.8 300.2,243.8 301.7,243.9 303.2,243.9 304.7,243.9 306.3,243.9 307.8,243.9 309.3,243.9 310.8,243.9 312.4,243.9 313.9,243.8 315.4,243.8 316.9,243.8 318.5,243.9 320.0,243.9 321.5,243.9 323.0,243.9 324.5,243.9 326.1,243.9 327.6,243.9 329.1,243.9 330.6,243.9 332.2,243.9 333.7,243.9 335.2,243.9 336.7,243.8 338.3,243.8 339.8,243.8 341.3,243.8 342.8,243.8 344.3,243.8 345.9,243.8 347.4,243.8 348.9,243.8 350.4,243.8 352.0,243.8 353.5,243.8 355.0,243.8 356.5,243.8 358.1,243.8 359.6,243.8 361.1,243.8 362.6,243.8 364.1,243.8 365.7,243.9 367.2,243.9 368.7,243.8 370.2,243.8 371.8,243.8 373.3,243.8 374.8,243.8 376.3,243.9 377.9,243.9 379.4,243.9 380.9,243.8 382.4,243.8 383.9,243.8 385.5,243.8 387.0,243.8 388.5,243.8 390.0,243.8 391.6,243.8 393.1,243.8 394.6,258.5 396.1,271.8 397.7,284.4 399.2,295.8 400.7,306.0 402.2,315.2 403.7,323.9 405.3,331.5 406.8,338.3 408.3,344.2 409.8,349.9 411.4,355.0 412.9,359.5 414.4,363.6 415.9,367.2 417.5,370.4 419.0,373.3 420.5,375.9 422.0,378.1 423.5,380.0 425.1,382.0 426.6,383.8 428.1,385.1 429.6,386.4 431.2,387.7 432.7,388.7 434.2,389.7 435.7,390.5 437.3,391.6 438.8,392.3 440.3,392.9 441.8,393.3 443.3,393.6 444.9,394.0 446.4,394.2 447.9,394.9 449.4,395.2 451.0,395.6 452.5,395.7 454.0,395.9 455.5,396.3 457.1,396.6 458.6,396.9 460.1,397.1 461.6,397.2 463.1,397.4 464.7,397.6 466.2,397.6 467.7,397.9 469.2,398.0 470.8,398.0 472.3,398.2 473.8,398.1 475.3,398.1 476.9,398.2 478.4,398.3 479.9,398.3 481.4,398.5 482.9,398.6 484.5,398.8 486.0,398.8 487.5,398.7 489.0,398.7 490.6,398.8 492.1,398.9 493.6,399.0 495.1,399.2 496.7,399.2 498.2,399.3 499.7,399.4 501.2,399.4 502.7,399.4 504.3,399.4 505.8,399.4 507.3,399.6 508.8,399.7 510.4,399.6 511.9,399.6 513.4,399.7 514.9,399.6 516.5,399.3 518.0,399.0 519.5,398.9 521.0,398.8 522.5,398.7 524.1,398.5 525.6,398.3 527.1,398.6 528.6,398.7 530.2,398.6 531.7,398.6 533.2,398.7 534.7,398.6 536.3,398.5 537.8,398.3 539.3,398.5 540.8,398.3 542.3,398.4 543.9,398.5 545.4,398.8 546.9,387.9 548.4,377.7 550.0,365.9 551.5,354.2 553.0,343.2 554.5,333.3 556.1,324.3 557.6,316.3 559.1,309.0 560.6,302.5 562.1,296.7 563.7,291.4 565.2,286.6 566.7,282.3 568.2,278.5 569.8,275.0 571.3,271.9 572.8,269.1 574.3,266.5 575.9,264.3 577.4,262.2 578.9,260.4 580.4,258.8 581.9,257.3 583.5,255.9 585.0,254.7 586.5,253.6 588.0,252.7 589.6,251.8 591.1,251.0 592.6,250.3 594.1,249.6 595.7,249.1 597.2,248.5 598.7,248.1 600.2,247.6 601.7,247.2 603.3,246.9 604.8,246.6 606.3,246.3 607.8,246.1 609.4,245.8 610.9,245.6 612.4,245.5 613.9,245.3 615.5,245.1 617.0,245.0 618.5,244.9 620.0,244.8 621.5,244.7 623.1,244.6 624.6,244.6 626.1,244.5 627.6,244.4 629.2,244.4 630.7,244.3 632.2,244.3 633.7,244.2 635.3,244.2 636.8,244.2 638.3,244.1 639.8,244.1 641.3,244.1 642.9,244.0 644.4,244.0 645.9,244.0 647.4,244.0 649.0,244.0 650.5,244.0 652.0,243.9 653.5,243.9 655.1,243.9 656.6,243.9 658.1,243.9 659.6,243.9 661.1,243.9 662.7,243.9 664.2,243.9 665.7,243.9 667.2,243.9 668.8,243.9 670.3,243.8 671.8,243.9 673.3,243.9 674.8,243.9 676.4,243.9 677.9,243.9 679.4,243.9 680.9,243.9 682.5,243.9 684.0,243.8 685.5,243.8 687.0,243.9 688.6,243.9 690.1,243.9 691.6,243.9 693.1,243.9 694.6,243.9 696.2,243.9 697.7,243.9 699.2,243.9 700.7,243.9 702.3,243.9 703.8,243.9 705.3,243.9 706.8,243.9 708.4,243.9 709.9,243.9 711.4,243.9 712.9,243.8 714.4,243.9 716.0,243.8 717.5,243.8 719.0,243.8 720.5,243.8 722.1,243.9 723.6,243.8 725.1,243.8 726.6,243.9 728.2,243.8 729.7,243.8 731.2,243.9 732.7,243.9 734.2,243.8 735.8,243.8 737.3,243.9 738.8,243.8 740.3,243.8 741.9,243.8 743.4,243.8 744.9,243.8 746.4,243.8 748.0,243.8 749.5,243.8 751.0,243.8 752.5,243.8 754.0,243.8 755.6,243.8 757.1,243.8 758.6,243.8 760.1,243.8 761.7,243.8 763.2,243.8 764.7,243.8 766.2,243.8 767.8,243.8 769.3,243.8 770.8,243.8 772.3,243.8 773.8,243.8 775.4,243.8 776.9,243.8 778.4,243.8 779.9,243.8 781.5,243.8 783.0,243.8 784.5,243.8 786.0,243.8 787.6,243.8 789.1,243.8 790.6,243.8 792.1,243.8 793.6,243.8 795.2,243.8 796.7,243.8 798.2,243.8 799.7,243.8 801.3,243.8 802.8,243.8 804.3,243.9 805.8,243.9 807.4,243.8 808.9,243.8 810.4,243.8 811.9,243.8 813.4,243.9 815.0,243.9 816.5,243.9 818.0,243.9 819.5,243.8 821.1,243.9 822.6,243.9 824.1,243.9 825.6,243.9 827.2,243.9 828.7,243.9 830.2,243.9 831.7,243.8 833.2,243.8 834.8,243.8 836.3,243.8 837.8,243.9 839.3,243.9 840.9,243.8 842.4,243.8 843.9,243.8 845.4,243.8 847.0,243.8 848.5,243.8 850.0,243.8" fill="none" stroke="#c0392b" stroke-width="2.0" stroke-linejoin="round"/>
<polyline points="90.0,105.3 91.5,119.1 93.0,131.5 94.6,142.8 96.1,152.9 97.6,162.0 99.1,170.2 100.7,177.5 102.2,184.2 103.7,190.1 105.2,195.5 106.8,200.3 108.3,204.7 109.8,208.6 111.3,212.1 112.8,215.3 114.4,218.1 115.9,220.7 117.4,223.0 118.9,225.1 120.5,227.0 122.0,228.7 123.5,230.2 125.0,231.5 126.6,232.8 128.1,233.9 129.6,234.9 131.1,235.8 132.6,236.6 134.2,237.3 135.7,238.0 137.2,238.6 138.7,239.1 140.3,239.6 141.8,240.0 143.3,240.4 144.8,240.7 146.4,241.0 147.9,241.3 149.4,241.6 150.9,241.8 152.4,242.0 154.0,242.2 155.5,242.3 157.0,242.5 158.5,242.6 160.1,242.7 161.6,242.9 163.1,242.9 164.6,243.0 166.2,243.1 167.7,243.2 169.2,243.3 170.7,243.3 172.2,243.4 173.8,243.4 175.3,243.5 176.8,243.5 178.3,243.5 179.9,243.6 181.4,243.6 182.9,243.6 184.4,243.7 186.0,243.7 187.5,243.7 189.0,243.7 190.5,243.7 192.0,243.7 193.6,243.8 195.1,243.8 196.6,243.8 198.1,243.8 199.7,243.8 201.2,243.8 202.7,243.8 204.2,243.8 205.8,243.8 207.3,243.8 208.8,243.8 210.3,243.8 211.8,243.8 213.4,243.8 214.9,243.8 216.4,243.8 217.9,243.8 219.5,243.8 221.0,243.8 222.5,243.8 224.0,243.8 225.6,243.8 227.1,243.8 228.6,243.8 230.1,243.8 231.6,243.8 233.2,243.8 234.7,243.8 236.2,243.8 237.7,243.8 239.3,243.8 240.8,243.8 242.3,243.8 243.8,243.8 245.4,243.8 246.9,243.8 248.4,243.8 249.9,243.8 251.4,243.8 253.0,243.8 254.5,243.9 256.0,243.9 257.5,243.8 259.1,243.8 260.6,243.8 262.1,243.8 263.6,243.8 265.2,243.9 266.7,243.9 268.2,243.9 269.7,243.9 271.2,243.9 272.8,243.9 274.3,243.8 275.8,243.9 277.3,243.8 278.9,243.8 280.4,243.8 281.9,243.8 283.4,243.8 284.9,243.8 286.5,243.8 288.0,243.8 289.5,243.8 291.0,243.8 292.6,243.8 294.1,243.8 295.6,243.8 297.1,243.8 298.7,243.8 300.2,243.8 301.7,243.8 303.2,243.9 304.7,243.9 306.3,243.8 307.8,243.8 309.3,243.8 310.8,243.8 312.4,243.8 313.9,243.8 315.4,243.8 316.9,243.8 318.5,243.8 320.0,243.8 321.5,243.8 323.0,243.8 324.5,243.8 326.1,243.8 327.6,243.8 329.1,243.8 330.6,243.8 332.2,243.8 333.7,243.8 335.2,243.8 336.7,243.8 338.3,243.8 339.8,243.8 341.3,243.8 342.8,243.8 344.3,243.8 345.9,243.8 347.4,243.9 348.9,243.9 350.4,243.9 352.0,243.9 353.5,243.9 355.0,243.9 356.5,243.9 358.1,243.9 359.6,243.9 361.1,243.9 362.6,243.9 364.1,243.9 365.7,243.9 367.2,243.9 368.7,243.9 370.2,243.8 371.8,243.9 373.3,243.8 374.8,243.8 376.3,243.8 377.9,243.8 379.4,243.8 380.9,243.8 382.4,243.8 383.9,243.8 385.5,243.8 387.0,243.8 388.5,243.9 390.0,243.9 391.6,243.8 393.1,243.8 394.6,258.6 396.1,271.8 397.7,284.6 399.2,295.9 400.7,306.2 402.2,315.3 403.7,323.8 405.3,331.3 406.8,338.3 408.3,344.3 409.8,349.7 411.4,354.8 412.9,359.3 414.4,363.2 415.9,367.0 417.5,370.3 419.0,373.2 420.5,375.6 422.0,378.1 423.5,380.2 425.1,382.1 426.6,383.7 428.1,385.3 429.6,386.8 431.2,388.1 432.7,389.2 434.2,390.1 435.7,391.1 437.3,392.2 438.8,393.1 440.3,393.7 441.8,394.0 443.3,394.6 444.9,394.9 446.4,395.4 447.9,395.8 449.4,396.1 451.0,396.2 452.5,396.3 454.0,396.8 455.5,397.0 457.1,397.5 458.6,397.6 460.1,397.5 461.6,397.7 463.1,397.6 464.7,397.6 466.2,397.9 467.7,398.0 469.2,397.9 470.8,398.1 472.3,398.1 473.8,398.1 475.3,398.4 476.9,398.3 478.4,398.2 479.9,398.4 481.4,398.5 482.9,398.2 484.5,397.8 486.0,397.9 487.5,397.8 489.0,398.0 490.6,398.1 492.1,397.9 493.6,398.0 495.1,398.1 496.7,398.2 498.2,398.5 499.7,398.6 501.2,398.7 502.7,398.8 504.3,398.8 505.8,398.7 507.3,398.6 508.8,398.6 510.4,398.8 511.9,398.9 513.4,398.8 514.9,399.0 516.5,399.3 518.0,399.5 519.5,399.6 521.0,399.7 522.5,399.9 524.1,399.8 525.6,399.7 527.1,399.7 528.6,399.6 530.2,399.4 531.7,399.4 533.2,399.1 534.7,399.1 536.3,399.2 537.8,399.2 539.3,399.1 540.8,399.1 542.3,399.0 543.9,399.1 545.4,399.0 546.9,386.1 548.4,376.3 550.0,364.7 551.5,353.1 553.0,342.2 554.5,332.4 556.1,323.6 557.6,315.6 559.1,308.4 560.6,302.0 562.1,296.1 563.7,290.9 565.2,286.2 566.7,282.0 568.2,278.2 569.8,274.7 571.3,271.6 572.8,268.9 574.3,266.4 575.9,264.1 577.4,262.1 578.9,260.3 580.4,258.7 581.9,257.2 583.5,255.8 585.0,254.6 586.5,253.6 588.0,252.6 589.6,251.7 591.1,250.9 592.6,250.2 594.1,249.6 595.7,249.0 597.2,248.5 598.7,248.0 600.2,247.6 601.7,247.2 603.3,246.9 604.8,246.6 606.3,246.3 607.8,246.1 609.4,245.8 610.9,245.6 612.4,245.5 613.9,245.3 615.5,245.2 617.0,245.0 618.5,244.9 620.0,244.8 621.5,244.7 623.1,244.6 624.6,244.5 626.1,244.5 627.6,244.4 629.2,244.4 630.7,244.3 632.2,244.2 633.7,244.2 635.3,244.2 636.8,244.1 638.3,244.1 639.8,244.1 641.3,244.1 642.9,244.0 644.4,244.0 645.9,244.0 647.4,244.0 649.0,244.0 650.5,244.0 652.0,244.0 653.5,243.9 655.1,243.9 656.6,243.9 658.1,243.9 659.6,243.9 661.1,243.9 662.7,243.9 664.2,243.9 665.7,243.9 667.2,243.9 668.8,243.9 670.3,243.9 671.8,243.9 673.3,243.9 674.8,243.9 676.4,243.9 677.9,243.9 679.4,243.9 680.9,243.9 682.5,243.8 684.0,243.8 685.5,243.8 687.0,243.8 688.6,243.8 690.1,243.8 691.6,243.8 693.1,243.8 694.6,243.8 696.2,243.9 697.7,243.8 699.2,243.8 700.7,243.9 702.3,243.8 703.8,243.9 705.3,243.9 706.8,243.9 708.4,243.9 709.9,243.9 711.4,243.9 712.9,243.9 714.4,243.9 716.0,243.9 717.5,243.9 719.0,243.8 720.5,243.9 722.1,243.9 723.6,243.9 725.1,243.9 726.6,243.9 728.2,243.9 729.7,243.9 731.2,243.9 732.7,243.9 734.2,243.9 735.8,243.9 737.3,243.9 738.8,243.9 740.3,243.9 741.9,243.9 743.4,243.9 744.9,243.9 746.4,243.9 748.0,243.9 749.5,243.9 751.0,243.9 752.5,243.9 754.0,243.9 755.6,243.8 757.1,243.9 758.6,243.9 760.1,243.8 761.7,243.8 763.2,243.8 764.7,243.8 766.2,243.8 767.8,243.9 769.3,243.9 770.8,243.8 772.3,243.8 773.8,243.8 775.4,243.8 776.9,243.8 778.4,243.8 779.9,243.8 781.5,243.8 783.0,243.8 784.5,243.8 786.0,243.8 787.6,243.8 789.1,243.8 790.6,243.8 792.1,243.8 793.6,243.8 795.2,243.8 796.7,243.8 798.2,243.8 799.7,243.8 801.3,243.8 802.8,243.8 804.3,243.8 805.8,243.8 807.4,243.8 808.9,243.8 810.4,243.8 811.9,243.8 813.4,243.9 815.0,243.8 816.5,243.9 818.0,243.9 819.5,243.9 821.1,243.9 822.6,243.9 824.1,243.9 825.6,243.9 827.2,243.9 828.7,243.9 830.2,243.8 831.7,243.8 833.2,243.8 834.8,243.8 836.3,243.8 837.8,243.8 839.3,243.8 840.9,243.8 842.4,243.8 843.9,243.8 845.4,243.8 847.0,243.8 848.5,243.8 850.0,243.8" fill="none" stroke="#0284c7" stroke-width="2.0" stroke-linejoin="round"/>
<line x1="548.4" y1="377.7" x2="570.4" y2="349.7" stroke="#0f172a" stroke-width="1"/><circle cx="548.4" cy="377.7" r="6" fill="#c0392b" stroke="#ffffff" stroke-width="2"/>
<rect x="566.4" y="335.7" width="102.0" height="20" rx="4" fill="#ffffff" stroke="#0f172a" stroke-width="0.8"/><text x="617.4" y="349.7" text-anchor="middle" fill="#0f172a" font-size="11" font-weight="600">T10 recovery</text>
<line x1="580.4" y1="258.8" x2="602.4" y2="244.8" stroke="#0f172a" stroke-width="1"/><circle cx="580.4" cy="258.8" r="6" fill="#c0392b" stroke="#ffffff" stroke-width="2"/>
<rect x="598.4" y="230.8" width="102.0" height="20" rx="4" fill="#ffffff" stroke="#0f172a" stroke-width="0.8"/><text x="649.4" y="244.8" text-anchor="middle" fill="#0f172a" font-size="11" font-weight="600">T90 recovery</text>
<g filter="url(#panelShadow)"><rect x="872" y="98" width="180" height="86" rx="8" fill="#ffffff" stroke="#cbd5e1"/></g><text x="882" y="116" fill="#0f172a" font-size="12" font-weight="700">Trace</text><line x1="882" y1="130" x2="904" y2="130" stroke="#c0392b" stroke-width="2.6"/><circle cx="893" cy="130" r="3.5" fill="#ffffff" stroke="#c0392b" stroke-width="2"/><text x="914" y="134" fill="#0f172a" font-size="12">Full (Proposed)</text><line x1="882" y1="152" x2="904" y2="152" stroke="#0284c7" stroke-width="2.6"/><circle cx="893" cy="152" r="3.5" fill="#ffffff" stroke="#0284c7" stroke-width="2"/><text x="914" y="156" fill="#0f172a" font-size="12">DT only</text>
</svg>