<svg xmlns="http://www.w3.org/2000/svg" viewBox="0 0 940 540" width="940" height="540" font-family="'Inter','Segoe UI','Helvetica Neue',Arial,sans-serif" role="img" aria-label="Scalability vs. Number of Users">

<defs>
  <filter id="panelShadow" x="-5%" y="-5%" width="110%" height="115%">
    <feGaussianBlur in="SourceAlpha" stdDeviation="2.2"/>
    <feOffset dx="0" dy="2"/>
    <feComponentTransfer><feFuncA type="linear" slope="0.18"/></feComponentTransfer>
    <feMerge><feMergeNode/><feMergeNode in="SourceGraphic"/></feMerge>
  </filter>
  <filter id="pointShadow" x="-50%" y="-50%" width="200%" height="200%">
    <feGaussianBlur in="SourceAlpha" stdDeviation="1.4"/>
    <feOffset dx="0" dy="1"/>
    <feComponentTransfer><feFuncA type="linear" slope="0.35"/></feComponentTransfer>
    <feMerge><feMergeNode/><feMergeNode in="SourceGraphic"/></feMerge>
  </filter>
  <marker id="mArrow" viewBox="0 0 10 10" refX="9" refY="5" markerWidth="8" markerHeight="8" orient="auto-start-reverse">
    <path d="M0,0 L10,5 L0,10 z" fill="#0f172a"/>
  </marker>
</defs>

<rect width="100%" height="100%" fill="#ffffff"/>
<text x="470.0" y="36" text-anchor="middle" font-size="20" font-weight="800" fill="#0f172a">Scalability vs. Number of Users</text>
<text x="470.0" y="60" text-anchor="middle" font-size="13" fill="#475569">Cell-free 256-antenna aggregate · fixed target set</text>
<g filter="url(#panelShadow)"><rect x="90" y="90" width="700" height="370" fill="#fdfefe" stroke="#cbd5e1" stroke-width="1"/></g><line x1="90" y1="372.8" x2="790" y2="372.8" stroke="#f1f5f9" stroke-width="0.6"/><line x1="90" y1="348.5" x2="790" y2="348.5" stroke="#f1f5f9" stroke-width="0.6"/><line x1="90" y1="299.9" x2="790" y2="299.9" stroke="#f1f5f9" stroke-width="0.6"/><line x1="90" y1="275.6" x2="790" y2="275.6" stroke="#f1f5f9" stroke-width="0.6"/><line x1="90" y1="227.0" x2="790" y2="227.0" stroke="#f1f5f9" stroke-width="0.6"/><line x1="90" y1="202.8" x2="790" y2="202.8" stroke="#f1f5f9" stroke-width="0.6"/><line x1="90" y1="154.2" x2="790" y2="154.2" stroke="#f1f5f9" stroke-width="0.6"/><line x1="90" y1="129.9" x2="790" y2="129.9" stroke="#f1f5f9" stroke-width="0.6"/><line x1="90" y1="397.1" x2="790" y2="397.1" stroke="#e2e8f0" stroke-width="1"/><text x="80" y="401.1" text-anchor="end" fill="#475569" font-size="11">0.200</text><line x1="90" y1="324.2" x2="790" y2="324.2" stroke="#e2e8f0" stroke-width="1"/><text x="80" y="328.2" text-anchor="end" fill="#475569" font-size="11">0.300</text><line x1="90" y1="251.3" x2="790" y2="251.3" stroke="#e2e8f0" stroke-width="1"/><text x="80" y="255.3" text-anchor="end" fill="#475569" font-size="11">0.400</text><line x1="90" y1="178.5" x2="790" y2="178.5" stroke="#e2e8f0" stroke-width="1"/><text x="80" y="182.5" text-anchor="end" fill="#475569" font-size="11">0.500</text><line x1="90" y1="105.6" x2="790" y2="105.6" stroke="#e2e8f0" stroke-width="1"/><text x="80" y="109.6" text-anchor="end" fill="#475569" font-size="11">0.600</text><line x1="90.0" y1="90" x2="90.0" y2="460" stroke="#e2e8f0" stroke-width="1"/><text x="90.0" y="478" text-anchor="middle" fill="#475569" font-size="11">10</text><line x1="230.0" y1="90" x2="230.0" y2="460" stroke="#e2e8f0" stroke-width="1"/><text x="230.0" y="478" text-anchor="middle" fill="#475569" font-size="11">20</text><line x1="370.0" y1="90" x2="370.0" y2="460" stroke="#e2e8f0" stroke-width="1"/><text x="370.0" y="478" text-anchor="middle" fill="#475569" font-size="11">30</text><line x1="510.0" y1="90" x2="510.0" y2="460" stroke="#e2e8f0" stroke-width="1"/><text x="510.0" y="478" text-anchor="middle" fill="#475569" font-size="11">40</text><line x1="650.0" y1="90" x2="650.0" y2="460" stroke="#e2e8f0" stroke-width="1"/><text x="650.0" y="478" text-anchor="middle" fill="#475569" font-size="11">50</text><line x1="790.0" y1="90" x2="790.0" y2="460" stroke="#e2e8f0" stroke-width="1"/><text x="790.0" y="478" text-anchor="middle" fill="#475569" font-size="11">60</text><text x="440.0" y="504" text-anchor="middle" fill="#0f172a" font-size="13" font-weight="600">Users  U</text><text transform="translate(38,275.0) rotate(-90)" text-anchor="middle" fill="#0f172a" font-size="13" font-weight="600">Mean utility</text>
<polygon points="90.0,149.2 230.0,122.2 510.0,356.9 790.0,378.6 790.0,412.3 510.0,396.6 230.0,200.6 90.0,180.5" fill="#64748b" opacity="0.14"/>
<polygon points="90.0,168.1 230.0,136.8 510.0,352.5 790.0,382.9 790.0,443.9 510.0,400.6 230.0,138.2 90.0,179.9" fill="#0284c7" opacity="0.14"/>
<polygon points="90.0,162.1 230.0,167.6 510.0,324.4 790.0,377.3 790.0,426.5 510.0,369.0 230.0,199.1 90.0,196.0" fill="#c0392b" opacity="0.14"/>
<polyline points="90.0,164.9 230.0,161.4 510.0,376.7 790.0,395.5" fill="none" stroke="#64748b" stroke-width="2.4"  stroke-linejoin="round" stroke-linecap="round"/>
<circle cx="90.0" cy="164.9" r="4" fill="#ffffff" stroke="#64748b" stroke-width="2.2" filter="url(#pointShadow)"/>
<circle cx="230.0" cy="161.4" r="4" fill="#ffffff" stroke="#64748b" stroke-width="2.2" filter="url(#pointShadow)"/>
<circle cx="510.0" cy="376.7" r="4" fill="#ffffff" stroke="#64748b" stroke-width="2.2" filter="url(#pointShadow)"/>
<circle cx="790.0" cy="395.5" r="4" fill="#ffffff" stroke="#64748b" stroke-width="2.2" filter="url(#pointShadow)"/>
<polyline points="90.0,174.0 230.0,137.5 510.0,376.6 790.0,413.4" fill="none" stroke="#0284c7" stroke-width="2.4"  stroke-linejoin="round" stroke-linecap="round"/>
<circle cx="90.0" cy="174.0" r="4" fill="#ffffff" stroke="#0284c7" stroke-width="2.2" filter="url(#pointShadow)"/>
<circle cx="230.0" cy="137.5" r="4" fill="#ffffff" stroke="#0284c7" stroke-width="2.2" filter="url(#pointShadow)"/>
<circle cx="510.0" cy="376.6" r="4" fill="#ffffff" stroke="#0284c7" stroke-width="2.2" filter="url(#pointShadow)"/>
<circle cx="790.0" cy="413.4" r="4" fill="#ffffff" stroke="#0284c7" stroke-width="2.2" filter="url(#pointShadow)"/>
<polyline points="90.0,179.0 230.0,183.3 510.0,346.7 790.0,401.9" fill="none" stroke="#c0392b" stroke-width="3.2"  stroke-linejoin="round" stroke-linecap="round"/>
<circle cx="90.0" cy="179.0" r="5" fill="#ffffff" stroke="#c0392b" stroke-width="2.2" filter="url(#pointShadow)"/>
<circle cx="230.0" cy="183.3" r="5" fill="#ffffff" stroke="#c0392b" stroke-width="2.2" filter="url(#pointShadow)"/>
<circle cx="510.0" cy="346.7" r="5" fill="#ffffff" stroke="#c0392b" stroke-width="2.2" filter="url(#pointShadow)"/>
<circle cx="790.0" cy="401.9" r="5" fill="#ffffff" stroke="#c0392b" stroke-width="2.2" filter="url(#pointShadow)"/>
<g filter="url(#panelShadow)"><rect x="812" y="98" width="180" height="108" rx="8" fill="#ffffff" stroke="#cbd5e1"/></g><text x="822" y="116" fill="#0f172a" font-size="12" font-weight="700">Method</text><rect x="822" y="124" width="22" height="10" fill="#64748b" opacity="0.35" rx="2"/><line x1="822" y1="129" x2="844" y2="129" stroke="#64748b" stroke-width="2"/><text x="854" y="134" fill="#0f172a" font-size="12">Static ISAC</text><rect x="822" y="146" width="22" height="10" fill="#0284c7" opacity="0.35" rx="2"/><line x1="822" y1="151" x2="844" y2="151" stroke="#0284c7" stroke-width="2"/><text x="854" y="156" fill="#0f172a" font-size="12">DT only</text><rect x="822" y="168" width="22" height="10" fill="#c0392b" opacity="0.35" rx="2"/><line x1="822" y1="173" x2="844" y2="173" stroke="#c0392b" stroke-width="2"/><text x="854" y="178" fill="#0f172a" font-size="12">Full (Proposed)</text>
</svg>