<svg xmlns="http://www.w3.org/2000/svg" viewBox="0 0 940 540" width="940" height="540" font-family="'Inter','Segoe UI','Helvetica Neue',Arial,sans-serif" role="img" aria-label="Robustness to Digital-Twin Synchronisation Delay">

<defs>
  <filter id="panelShadow" x="-5%" y="-5%" width="110%" height="115%">
    <feGaussianBlur in="SourceAlpha" stdDeviation="2.2"/>
    <feOffset dx="0" dy="2"/>
    <feComponentTransfer><feFuncA type="linear" slope="0.18"/></feComponentTransfer>
    <feMerge><feMergeNode/><feMergeNode in="SourceGraphic"/></feMerge>
  </filter>
  <filter id="pointShadow" x="-50%" y="-50%" width="200%" height="200%">
    <feGaussianBlur in="SourceAlpha" stdDeviation="1.4"/>
    <feOffset dx="0" dy="1"/>
    <feComponentTransfer><feFuncA type="linear" slope="0.35"/></feComponentTransfer>
    <feMerge><feMergeNode/><feMergeNode in="SourceGraphic"/></feMerge>
  </filter>
  <marker id="mArrow" viewBox="0 0 10 10" refX="9" refY="5" markerWidth="8" markerHeight="8" orient="auto-start-reverse">
    <path d="M0,0 L10,5 L0,10 z" fill="#0f172a"/>
  </marker>
</defs>

<rect width="100%" height="100%" fill="#ffffff"/>
<text x="470.0" y="36" text-anchor="middle" font-size="20" font-weight="800" fill="#0f172a">Robustness to Digital-Twin Synchronisation Delay</text>
<text x="470.0" y="60" text-anchor="middle" font-size="13" fill="#475569">Full-framework utility swing across τ ∈ [1,10]: 0.003</text>
<g filter="url(#panelShadow)"><rect x="90" y="90" width="700" height="370" fill="#fdfefe" stroke="#cbd5e1" stroke-width="1"/></g><line x1="90" y1="434.5" x2="790" y2="434.5" stroke="#f1f5f9" stroke-width="0.6"/><line x1="90" y1="413.5" x2="790" y2="413.5" stroke="#f1f5f9" stroke-width="0.6"/><line x1="90" y1="371.6" x2="790" y2="371.6" stroke="#f1f5f9" stroke-width="0.6"/><line x1="90" y1="350.6" x2="790" y2="350.6" stroke="#f1f5f9" stroke-width="0.6"/><line x1="90" y1="308.6" x2="790" y2="308.6" stroke="#f1f5f9" stroke-width="0.6"/><line x1="90" y1="287.6" x2="790" y2="287.6" stroke="#f1f5f9" stroke-width="0.6"/><line x1="90" y1="245.6" x2="790" y2="245.6" stroke="#f1f5f9" stroke-width="0.6"/><line x1="90" y1="224.6" x2="790" y2="224.6" stroke="#f1f5f9" stroke-width="0.6"/><line x1="90" y1="182.6" x2="790" y2="182.6" stroke="#f1f5f9" stroke-width="0.6"/><line x1="90" y1="161.7" x2="790" y2="161.7" stroke="#f1f5f9" stroke-width="0.6"/><line x1="90" y1="455.5" x2="790" y2="455.5" stroke="#e2e8f0" stroke-width="1"/><text x="80" y="459.5" text-anchor="end" fill="#475569" font-size="11">0.175</text><line x1="90" y1="392.6" x2="790" y2="392.6" stroke="#e2e8f0" stroke-width="1"/><text x="80" y="396.6" text-anchor="end" fill="#475569" font-size="11">0.200</text><line x1="90" y1="329.6" x2="790" y2="329.6" stroke="#e2e8f0" stroke-width="1"/><text x="80" y="333.6" text-anchor="end" fill="#475569" font-size="11">0.225</text><line x1="90" y1="266.6" x2="790" y2="266.6" stroke="#e2e8f0" stroke-width="1"/><text x="80" y="270.6" text-anchor="end" fill="#475569" font-size="11">0.250</text><line x1="90" y1="203.6" x2="790" y2="203.6" stroke="#e2e8f0" stroke-width="1"/><text x="80" y="207.6" text-anchor="end" fill="#475569" font-size="11">0.275</text><line x1="90" y1="140.7" x2="790" y2="140.7" stroke="#e2e8f0" stroke-width="1"/><text x="80" y="144.7" text-anchor="end" fill="#475569" font-size="11">0.300</text><line x1="167.8" y1="90" x2="167.8" y2="460" stroke="#e2e8f0" stroke-width="1"/><text x="167.8" y="478" text-anchor="middle" fill="#475569" font-size="11">2</text><line x1="323.3" y1="90" x2="323.3" y2="460" stroke="#e2e8f0" stroke-width="1"/><text x="323.3" y="478" text-anchor="middle" fill="#475569" font-size="11">4</text><line x1="478.9" y1="90" x2="478.9" y2="460" stroke="#e2e8f0" stroke-width="1"/><text x="478.9" y="478" text-anchor="middle" fill="#475569" font-size="11">6</text><line x1="634.4" y1="90" x2="634.4" y2="460" stroke="#e2e8f0" stroke-width="1"/><text x="634.4" y="478" text-anchor="middle" fill="#475569" font-size="11">8</text><line x1="790.0" y1="90" x2="790.0" y2="460" stroke="#e2e8f0" stroke-width="1"/><text x="790.0" y="478" text-anchor="middle" fill="#475569" font-size="11">10</text><text x="440.0" y="504" text-anchor="middle" fill="#0f172a" font-size="13" font-weight="600">Synchronisation delay  τ  (slots)</text><text transform="translate(38,275.0) rotate(-90)" text-anchor="middle" fill="#0f172a" font-size="13" font-weight="600">Mean utility</text>
<polygon points="90.0,266.6 167.8,266.3 323.3,267.2 478.9,266.7 634.4,264.7 790.0,273.8 790.0,443.9 634.4,436.4 478.9,432.1 323.3,428.4 167.8,421.2 90.0,414.5" fill="#0284c7" opacity="0.14"/>
<polygon points="90.0,177.0 167.8,176.3 323.3,172.0 478.9,167.5 634.4,164.9 790.0,163.3 790.0,394.4 634.4,389.0 478.9,388.5 323.3,388.9 167.8,379.5 90.0,375.8" fill="#16a34a" opacity="0.14"/>
<polygon points="90.0,140.8 167.8,141.3 323.3,133.1 478.9,128.8 634.4,123.5 790.0,122.2 790.0,354.6 634.4,350.1 478.9,351.3 323.3,353.8 167.8,341.3 90.0,337.9" fill="#c0392b" opacity="0.14"/>
<polyline points="90.0,340.6 167.8,343.7 323.3,347.8 478.9,349.4 634.4,350.6 790.0,358.9" fill="none" stroke="#0284c7" stroke-width="2.4"  stroke-linejoin="round" stroke-linecap="round"/>
<circle cx="90.0" cy="340.6" r="4" fill="#ffffff" stroke="#0284c7" stroke-width="2.2" filter="url(#pointShadow)"/>
<circle cx="167.8" cy="343.7" r="4" fill="#ffffff" stroke="#0284c7" stroke-width="2.2" filter="url(#pointShadow)"/>
<circle cx="323.3" cy="347.8" r="4" fill="#ffffff" stroke="#0284c7" stroke-width="2.2" filter="url(#pointShadow)"/>
<circle cx="478.9" cy="349.4" r="4" fill="#ffffff" stroke="#0284c7" stroke-width="2.2" filter="url(#pointShadow)"/>
<circle cx="634.4" cy="350.6" r="4" fill="#ffffff" stroke="#0284c7" stroke-width="2.2" filter="url(#pointShadow)"/>
<circle cx="790.0" cy="358.9" r="4" fill="#ffffff" stroke="#0284c7" stroke-width="2.2" filter="url(#pointShadow)"/>
<polyline points="90.0,276.4 167.8,277.9 323.3,280.4 478.9,278.0 634.4,276.9 790.0,278.8" fill="none" stroke="#16a34a" stroke-width="2.4"  stroke-linejoin="round" stroke-linecap="round"/>
<circle cx="90.0" cy="276.4" r="4" fill="#ffffff" stroke="#16a34a" stroke-width="2.2" filter="url(#pointShadow)"/>
<circle cx="167.8" cy="277.9" r="4" fill="#ffffff" stroke="#16a34a" stroke-width="2.2" filter="url(#pointShadow)"/>
<circle cx="323.3" cy="280.4" r="4" fill="#ffffff" stroke="#16a34a" stroke-width="2.2" filter="url(#pointShadow)"/>
<circle cx="478.9" cy="278.0" r="4" fill="#ffffff" stroke="#16a34a" stroke-width="2.2" filter="url(#pointShadow)"/>
<circle cx="634.4" cy="276.9" r="4" fill="#ffffff" stroke="#16a34a" stroke-width="2.2" filter="url(#pointShadow)"/>
<circle cx="790.0" cy="278.8" r="4" fill="#ffffff" stroke="#16a34a" stroke-width="2.2" filter="url(#pointShadow)"/>
<polyline points="90.0,239.3 167.8,241.3 323.3,243.4 478.9,240.1 634.4,236.8 790.0,238.4" fill="none" stroke="#c0392b" stroke-width="3.2"  stroke-linejoin="round" stroke-linecap="round"/>
<circle cx="90.0" cy="239.3" r="5" fill="#ffffff" stroke="#c0392b" stroke-width="2.2" filter="url(#pointShadow)"/>
<circle cx="167.8" cy="241.3" r="5" fill="#ffffff" stroke="#c0392b" stroke-width="2.2" filter="url(#pointShadow)"/>
<circle cx="323.3" cy="243.4" r="5" fill="#ffffff" stroke="#c0392b" stroke-width="2.2" filter="url(#pointShadow)"/>
<circle cx="478.9" cy="240.1" r="5" fill="#ffffff" stroke="#c0392b" stroke-width="2.2" filter="url(#pointShadow)"/>
<circle cx="634.4" cy="236.8" r="5" fill="#ffffff" stroke="#c0392b" stroke-width="2.2" filter="url(#pointShadow)"/>
<circle cx="790.0" cy="238.4" r="5" fill="#ffffff" stroke="#c0392b" stroke-width="2.2" filter="url(#pointShadow)"/>
<g filter="url(#panelShadow)"><rect x="812" y="98" width="180" height="108" rx="8" fill="#ffffff" stroke="#cbd5e1"/></g><text x="822" y="116" fill="#0f172a" font-size="12" font-weight="700">Method</text><rect x="822" y="124" width="22" height="10" fill="#0284c7" opacity="0.35" rx="2"/><line x1="822" y1="129" x2="844" y2="129" stroke="#0284c7" stroke-width="2"/><text x="854" y="134" fill="#0f172a" font-size="12">DT only</text><rect x="822" y="146" width="22" height="10" fill="#16a34a" opacity="0.35" rx="2"/><line x1="822" y1="151" x2="844" y2="151" stroke="#16a34a" stroke-width="2"/><text x="854" y="156" fill="#0f172a" font-size="12">DT + QA</text><rect x="822" y="168" width="22" height="10" fill="#c0392b" opacity="0.35" rx="2"/><line x1="822" y1="173" x2="844" y2="173" stroke="#c0392b" stroke-width="2"/><text x="854" y="178" fill="#0f172a" font-size="12">Full (Proposed)</text>
</svg>