<svg xmlns="http://www.w3.org/2000/svg" viewBox="0 0 880 520" width="880" height="520" font-family="'Inter','Segoe UI','Helvetica Neue',Arial,sans-serif" font-size="14" role="img" aria-label="Quantum-Assisted Shortlist Size  —  Utility vs. Latency">
<rect width="100%" height="100%" fill="#ffffff"/>
<text x="440.0" y="30" text-anchor="middle" font-size="18" font-weight="700" fill="#111827">Quantum-Assisted Shortlist Size  —  Utility vs. Latency</text>
<rect x="90" y="70" width="670" height="380" fill="#fbfcfe" stroke="#1f2937" stroke-width="1.2"/>
<line x1="90" y1="437.0" x2="760" y2="437.0" stroke="#e5e7eb" stroke-width="1"/>
<text x="82" y="441.0" text-anchor="end" fill="#111827" font-size="12">0.15</text>
<line x1="90" y1="371.9" x2="760" y2="371.9" stroke="#e5e7eb" stroke-width="1"/>
<text x="82" y="375.9" text-anchor="end" fill="#111827" font-size="12">0.17</text>
<line x1="90" y1="306.8" x2="760" y2="306.8" stroke="#e5e7eb" stroke-width="1"/>
<text x="82" y="310.8" text-anchor="end" fill="#111827" font-size="12">0.20</text>
<line x1="90" y1="241.7" x2="760" y2="241.7" stroke="#e5e7eb" stroke-width="1"/>
<text x="82" y="245.7" text-anchor="end" fill="#111827" font-size="12">0.23</text>
<line x1="90" y1="176.6" x2="760" y2="176.6" stroke="#e5e7eb" stroke-width="1"/>
<text x="82" y="180.6" text-anchor="end" fill="#111827" font-size="12">0.25</text>
<line x1="90" y1="111.5" x2="760" y2="111.5" stroke="#e5e7eb" stroke-width="1"/>
<text x="82" y="115.5" text-anchor="end" fill="#111827" font-size="12">0.28</text>
<line x1="182.4" y1="70" x2="182.4" y2="450" stroke="#e5e7eb" stroke-width="1"/>
<text x="182.4" y="468" text-anchor="middle" fill="#111827" font-size="12">5</text>
<line x1="297.9" y1="70" x2="297.9" y2="450" stroke="#e5e7eb" stroke-width="1"/>
<text x="297.9" y="468" text-anchor="middle" fill="#111827" font-size="12">10</text>
<line x1="413.4" y1="70" x2="413.4" y2="450" stroke="#e5e7eb" stroke-width="1"/>
<text x="413.4" y="468" text-anchor="middle" fill="#111827" font-size="12">15</text>
<line x1="529.0" y1="70" x2="529.0" y2="450" stroke="#e5e7eb" stroke-width="1"/>
<text x="529.0" y="468" text-anchor="middle" fill="#111827" font-size="12">20</text>
<line x1="644.5" y1="70" x2="644.5" y2="450" stroke="#e5e7eb" stroke-width="1"/>
<text x="644.5" y="468" text-anchor="middle" fill="#111827" font-size="12">25</text>
<line x1="760.0" y1="70" x2="760.0" y2="450" stroke="#e5e7eb" stroke-width="1"/>
<text x="760.0" y="468" text-anchor="middle" fill="#111827" font-size="12">30</text>
<text x="425.0" y="492" text-anchor="middle" fill="#111827" font-size="13" font-weight="600">Shortlist size  M_s</text>
<text transform="translate(38,260.0) rotate(-90)" text-anchor="middle" fill="#111827" font-size="13" font-weight="600">Normalised value</text>
<polyline points="90.0,220.0 113.1,226.1 159.3,252.6 205.5,200.6 251.7,204.9 297.9,148.6 344.1,150.4 413.4,192.6 529.0,96.7 760.0,300.2" fill="none" stroke="#1f4e79" stroke-width="2.5" />
<circle cx="90.0" cy="220.0" r="3.5" fill="#ffffff" stroke="#1f4e79" stroke-width="2"/>
<circle cx="113.1" cy="226.1" r="3.5" fill="#ffffff" stroke="#1f4e79" stroke-width="2"/>
<circle cx="159.3" cy="252.6" r="3.5" fill="#ffffff" stroke="#1f4e79" stroke-width="2"/>
<circle cx="205.5" cy="200.6" r="3.5" fill="#ffffff" stroke="#1f4e79" stroke-width="2"/>
<circle cx="251.7" cy="204.9" r="3.5" fill="#ffffff" stroke="#1f4e79" stroke-width="2"/>
<circle cx="297.9" cy="148.6" r="3.5" fill="#ffffff" stroke="#1f4e79" stroke-width="2"/>
<circle cx="344.1" cy="150.4" r="3.5" fill="#ffffff" stroke="#1f4e79" stroke-width="2"/>
<circle cx="413.4" cy="192.6" r="3.5" fill="#ffffff" stroke="#1f4e79" stroke-width="2"/>
<circle cx="529.0" cy="96.7" r="3.5" fill="#ffffff" stroke="#1f4e79" stroke-width="2"/>
<circle cx="760.0" cy="300.2" r="3.5" fill="#ffffff" stroke="#1f4e79" stroke-width="2"/>
<polyline points="90.0,421.7 113.1,430.0 159.3,397.2 205.5,361.2 251.7,343.6 297.9,322.7 344.1,301.8 413.4,264.8 529.0,203.7 760.0,96.7" fill="none" stroke="#c0392b" stroke-width="2.5" stroke-dasharray="6,4"/>
<circle cx="90.0" cy="421.7" r="3.5" fill="#ffffff" stroke="#c0392b" stroke-width="2"/>
<circle cx="113.1" cy="430.0" r="3.5" fill="#ffffff" stroke="#c0392b" stroke-width="2"/>
<circle cx="159.3" cy="397.2" r="3.5" fill="#ffffff" stroke="#c0392b" stroke-width="2"/>
<circle cx="205.5" cy="361.2" r="3.5" fill="#ffffff" stroke="#c0392b" stroke-width="2"/>
<circle cx="251.7" cy="343.6" r="3.5" fill="#ffffff" stroke="#c0392b" stroke-width="2"/>
<circle cx="297.9" cy="322.7" r="3.5" fill="#ffffff" stroke="#c0392b" stroke-width="2"/>
<circle cx="344.1" cy="301.8" r="3.5" fill="#ffffff" stroke="#c0392b" stroke-width="2"/>
<circle cx="413.4" cy="264.8" r="3.5" fill="#ffffff" stroke="#c0392b" stroke-width="2"/>
<circle cx="529.0" cy="203.7" r="3.5" fill="#ffffff" stroke="#c0392b" stroke-width="2"/>
<circle cx="760.0" cy="96.7" r="3.5" fill="#ffffff" stroke="#c0392b" stroke-width="2"/>
<rect x="784" y="76" width="22" height="4" fill="#1f4e79" rx="2"/>
<circle cx="795" cy="78" r="4" fill="#1f4e79"/>
<text x="816" y="82" fill="#111827" font-size="12">Utility  (left scale)</text>
<rect x="784" y="98" width="22" height="4" fill="#c0392b" rx="2"/>
<circle cx="795" cy="100" r="4" fill="#c0392b"/>
<text x="816" y="104" fill="#111827" font-size="12">Latency  (normalised)</text>
</svg>
