<svg xmlns="http://www.w3.org/2000/svg" viewBox="0 0 940 540" width="940" height="540" font-family="'Inter','Segoe UI','Helvetica Neue',Arial,sans-serif" role="img" aria-label="Utility vs. Anomaly-Injection Rate">

<defs>
  <filter id="panelShadow" x="-5%" y="-5%" width="110%" height="115%">
    <feGaussianBlur in="SourceAlpha" stdDeviation="2.2"/>
    <feOffset dx="0" dy="2"/>
    <feComponentTransfer><feFuncA type="linear" slope="0.18"/></feComponentTransfer>
    <feMerge><feMergeNode/><feMergeNode in="SourceGraphic"/></feMerge>
  </filter>
  <filter id="pointShadow" x="-50%" y="-50%" width="200%" height="200%">
    <feGaussianBlur in="SourceAlpha" stdDeviation="1.4"/>
    <feOffset dx="0" dy="1"/>
    <feComponentTransfer><feFuncA type="linear" slope="0.35"/></feComponentTransfer>
    <feMerge><feMergeNode/><feMergeNode in="SourceGraphic"/></feMerge>
  </filter>
  <marker id="mArrow" viewBox="0 0 10 10" refX="9" refY="5" markerWidth="8" markerHeight="8" orient="auto-start-reverse">
    <path d="M0,0 L10,5 L0,10 z" fill="#0f172a"/>
  </marker>
</defs>

<rect width="100%" height="100%" fill="#ffffff"/>
<text x="470.0" y="36" text-anchor="middle" font-size="20" font-weight="800" fill="#0f172a">Utility vs. Anomaly-Injection Rate</text>
<text x="470.0" y="60" text-anchor="middle" font-size="13" fill="#475569">Peak gap vs Static: +0.106 at p=0.060  ·  peak gap vs strongest baseline: +0.021 at p=0.080</text>
<g filter="url(#panelShadow)"><rect x="90" y="90" width="700" height="370" fill="#fdfefe" stroke="#cbd5e1" stroke-width="1"/></g><line x1="90" y1="414.8" x2="790" y2="414.8" stroke="#f1f5f9" stroke-width="0.6"/><line x1="90" y1="394.1" x2="790" y2="394.1" stroke="#f1f5f9" stroke-width="0.6"/><line x1="90" y1="352.8" x2="790" y2="352.8" stroke="#f1f5f9" stroke-width="0.6"/><line x1="90" y1="332.2" x2="790" y2="332.2" stroke="#f1f5f9" stroke-width="0.6"/><line x1="90" y1="290.9" x2="790" y2="290.9" stroke="#f1f5f9" stroke-width="0.6"/><line x1="90" y1="270.3" x2="790" y2="270.3" stroke="#f1f5f9" stroke-width="0.6"/><line x1="90" y1="229.0" x2="790" y2="229.0" stroke="#f1f5f9" stroke-width="0.6"/><line x1="90" y1="208.4" x2="790" y2="208.4" stroke="#f1f5f9" stroke-width="0.6"/><line x1="90" y1="167.1" x2="790" y2="167.1" stroke="#f1f5f9" stroke-width="0.6"/><line x1="90" y1="146.4" x2="790" y2="146.4" stroke="#f1f5f9" stroke-width="0.6"/><line x1="90" y1="435.4" x2="790" y2="435.4" stroke="#e2e8f0" stroke-width="1"/><text x="80" y="439.4" text-anchor="end" fill="#475569" font-size="11">0.450</text><line x1="90" y1="373.5" x2="790" y2="373.5" stroke="#e2e8f0" stroke-width="1"/><text x="80" y="377.5" text-anchor="end" fill="#475569" font-size="11">0.500</text><line x1="90" y1="311.6" x2="790" y2="311.6" stroke="#e2e8f0" stroke-width="1"/><text x="80" y="315.6" text-anchor="end" fill="#475569" font-size="11">0.550</text><line x1="90" y1="249.6" x2="790" y2="249.6" stroke="#e2e8f0" stroke-width="1"/><text x="80" y="253.6" text-anchor="end" fill="#475569" font-size="11">0.600</text><line x1="90" y1="187.7" x2="790" y2="187.7" stroke="#e2e8f0" stroke-width="1"/><text x="80" y="191.7" text-anchor="end" fill="#475569" font-size="11">0.650</text><line x1="90" y1="125.8" x2="790" y2="125.8" stroke="#e2e8f0" stroke-width="1"/><text x="80" y="129.8" text-anchor="end" fill="#475569" font-size="11">0.700</text><line x1="90.0" y1="90" x2="90.0" y2="460" stroke="#e2e8f0" stroke-width="1"/><text x="90.0" y="478" text-anchor="middle" fill="#475569" font-size="11">0</text><line x1="265.0" y1="90" x2="265.0" y2="460" stroke="#e2e8f0" stroke-width="1"/><text x="265.0" y="478" text-anchor="middle" fill="#475569" font-size="11">0.02</text><line x1="440.0" y1="90" x2="440.0" y2="460" stroke="#e2e8f0" stroke-width="1"/><text x="440.0" y="478" text-anchor="middle" fill="#475569" font-size="11">0.04</text><line x1="615.0" y1="90" x2="615.0" y2="460" stroke="#e2e8f0" stroke-width="1"/><text x="615.0" y="478" text-anchor="middle" fill="#475569" font-size="11">0.06</text><line x1="790.0" y1="90" x2="790.0" y2="460" stroke="#e2e8f0" stroke-width="1"/><text x="790.0" y="478" text-anchor="middle" fill="#475569" font-size="11">0.08</text><text x="440.0" y="504" text-anchor="middle" fill="#0f172a" font-size="13" font-weight="600">Per-slot anomaly probability  p</text><text transform="translate(38,275.0) rotate(-90)" text-anchor="middle" fill="#0f172a" font-size="13" font-weight="600">Mean utility</text>
<polygon points="90.0,173.4 133.8,192.4 177.5,192.4 265.0,181.9 615.0,361.1 790.0,361.1 790.0,406.5 615.0,406.5 265.0,343.4 177.5,352.6 133.8,254.8 90.0,238.8" fill="#64748b" opacity="0.14"/>
<polygon points="90.0,138.1 133.8,176.9 177.5,176.9 265.0,219.4 615.0,351.7 790.0,351.7 790.0,443.9 615.0,443.9 265.0,393.4 177.5,220.2 133.8,220.2 90.0,220.2" fill="#0284c7" opacity="0.14"/>
<polygon points="90.0,151.1 133.8,151.7 177.5,173.3 265.0,144.9 615.0,144.9 790.0,345.5 790.0,387.4 615.0,387.4 265.0,161.1 177.5,232.9 133.8,166.1 90.0,151.7" fill="#16a34a" opacity="0.14"/>
<polygon points="90.0,126.4 133.8,126.4 177.5,149.2 265.0,122.2 615.0,122.2 790.0,296.5 790.0,383.7 615.0,383.7 265.0,156.6 177.5,228.6 133.8,160.6 90.0,145.6" fill="#c0392b" opacity="0.14"/>
<polyline points="90.0,206.1 133.8,223.6 177.5,272.5 265.0,262.6 615.0,383.8 790.0,383.8" fill="none" stroke="#64748b" stroke-width="2.4"  stroke-linejoin="round" stroke-linecap="round"/>
<circle cx="90.0" cy="206.1" r="4" fill="#ffffff" stroke="#64748b" stroke-width="2.2" filter="url(#pointShadow)"/>
<circle cx="133.8" cy="223.6" r="4" fill="#ffffff" stroke="#64748b" stroke-width="2.2" filter="url(#pointShadow)"/>
<circle cx="177.5" cy="272.5" r="4" fill="#ffffff" stroke="#64748b" stroke-width="2.2" filter="url(#pointShadow)"/>
<circle cx="265.0" cy="262.6" r="4" fill="#ffffff" stroke="#64748b" stroke-width="2.2" filter="url(#pointShadow)"/>
<circle cx="615.0" cy="383.8" r="4" fill="#ffffff" stroke="#64748b" stroke-width="2.2" filter="url(#pointShadow)"/>
<circle cx="790.0" cy="383.8" r="4" fill="#ffffff" stroke="#64748b" stroke-width="2.2" filter="url(#pointShadow)"/>
<polyline points="90.0,179.2 133.8,198.5 177.5,198.5 265.0,306.4 615.0,397.8 790.0,397.8" fill="none" stroke="#0284c7" stroke-width="2.4"  stroke-linejoin="round" stroke-linecap="round"/>
<circle cx="90.0" cy="179.2" r="4" fill="#ffffff" stroke="#0284c7" stroke-width="2.2" filter="url(#pointShadow)"/>
<circle cx="133.8" cy="198.5" r="4" fill="#ffffff" stroke="#0284c7" stroke-width="2.2" filter="url(#pointShadow)"/>
<circle cx="177.5" cy="198.5" r="4" fill="#ffffff" stroke="#0284c7" stroke-width="2.2" filter="url(#pointShadow)"/>
<circle cx="265.0" cy="306.4" r="4" fill="#ffffff" stroke="#0284c7" stroke-width="2.2" filter="url(#pointShadow)"/>
<circle cx="615.0" cy="397.8" r="4" fill="#ffffff" stroke="#0284c7" stroke-width="2.2" filter="url(#pointShadow)"/>
<circle cx="790.0" cy="397.8" r="4" fill="#ffffff" stroke="#0284c7" stroke-width="2.2" filter="url(#pointShadow)"/>
<polyline points="90.0,151.4 133.8,158.9 177.5,203.1 265.0,153.0 615.0,266.2 790.0,366.5" fill="none" stroke="#16a34a" stroke-width="2.4"  stroke-linejoin="round" stroke-linecap="round"/>
<circle cx="90.0" cy="151.4" r="4" fill="#ffffff" stroke="#16a34a" stroke-width="2.2" filter="url(#pointShadow)"/>
<circle cx="133.8" cy="158.9" r="4" fill="#ffffff" stroke="#16a34a" stroke-width="2.2" filter="url(#pointShadow)"/>
<circle cx="177.5" cy="203.1" r="4" fill="#ffffff" stroke="#16a34a" stroke-width="2.2" filter="url(#pointShadow)"/>
<circle cx="265.0" cy="153.0" r="4" fill="#ffffff" stroke="#16a34a" stroke-width="2.2" filter="url(#pointShadow)"/>
<circle cx="615.0" cy="266.2" r="4" fill="#ffffff" stroke="#16a34a" stroke-width="2.2" filter="url(#pointShadow)"/>
<circle cx="790.0" cy="366.5" r="4" fill="#ffffff" stroke="#16a34a" stroke-width="2.2" filter="url(#pointShadow)"/>
<polyline points="90.0,136.0 133.8,143.5 177.5,188.9 265.0,139.4 615.0,252.9 790.0,340.1" fill="none" stroke="#c0392b" stroke-width="3.2"  stroke-linejoin="round" stroke-linecap="round"/>
<circle cx="90.0" cy="136.0" r="5" fill="#ffffff" stroke="#c0392b" stroke-width="2.2" filter="url(#pointShadow)"/>
<circle cx="133.8" cy="143.5" r="5" fill="#ffffff" stroke="#c0392b" stroke-width="2.2" filter="url(#pointShadow)"/>
<circle cx="177.5" cy="188.9" r="5" fill="#ffffff" stroke="#c0392b" stroke-width="2.2" filter="url(#pointShadow)"/>
<circle cx="265.0" cy="139.4" r="5" fill="#ffffff" stroke="#c0392b" stroke-width="2.2" filter="url(#pointShadow)"/>
<circle cx="615.0" cy="252.9" r="5" fill="#ffffff" stroke="#c0392b" stroke-width="2.2" filter="url(#pointShadow)"/>
<circle cx="790.0" cy="340.1" r="5" fill="#ffffff" stroke="#c0392b" stroke-width="2.2" filter="url(#pointShadow)"/>
<line x1="615.0" y1="252.9" x2="633.0" y2="226.9" stroke="#0f172a" stroke-width="1"/><circle cx="615.0" cy="252.9" r="7" fill="none" stroke="#0f172a" stroke-width="1.5"/>
<rect x="629.0" y="212.9" width="244.5" height="20" rx="4" fill="#ffffff" stroke="#0f172a" stroke-width="0.8"/><text x="751.2" y="226.9" text-anchor="middle" fill="#0f172a" font-size="11" font-weight="600">Δ vs Static = +0.106  at p=0.06</text>
<g filter="url(#panelShadow)"><rect x="812" y="98" width="180" height="130" rx="8" fill="#ffffff" stroke="#cbd5e1"/></g><text x="822" y="116" fill="#0f172a" font-size="12" font-weight="700">Method</text><rect x="822" y="124" width="22" height="10" fill="#64748b" opacity="0.35" rx="2"/><line x1="822" y1="129" x2="844" y2="129" stroke="#64748b" stroke-width="2"/><text x="854" y="134" fill="#0f172a" font-size="12">Static ISAC</text><rect x="822" y="146" width="22" height="10" fill="#0284c7" opacity="0.35" rx="2"/><line x1="822" y1="151" x2="844" y2="151" stroke="#0284c7" stroke-width="2"/><text x="854" y="156" fill="#0f172a" font-size="12">DT only</text><rect x="822" y="168" width="22" height="10" fill="#16a34a" opacity="0.35" rx="2"/><line x1="822" y1="173" x2="844" y2="173" stroke="#16a34a" stroke-width="2"/><text x="854" y="178" fill="#0f172a" font-size="12">DT + QA</text><rect x="822" y="190" width="22" height="10" fill="#c0392b" opacity="0.35" rx="2"/><line x1="822" y1="195" x2="844" y2="195" stroke="#c0392b" stroke-width="2"/><text x="854" y="200" fill="#0f172a" font-size="12">Full (Proposed)</text>
</svg>