<svg xmlns="http://www.w3.org/2000/svg" viewBox="0 0 880 520" width="880" height="520" font-family="'Inter','Segoe UI','Helvetica Neue',Arial,sans-serif" font-size="14" role="img" aria-label="Utility vs. Anomaly-Injection Rate">
<rect width="100%" height="100%" fill="#ffffff"/>
<text x="440.0" y="30" text-anchor="middle" font-size="18" font-weight="700" fill="#111827">Utility vs. Anomaly-Injection Rate</text>
<rect x="90" y="70" width="670" height="380" fill="#fbfcfe" stroke="#1f2937" stroke-width="1.2"/>
<line x1="90" y1="399.1" x2="760" y2="399.1" stroke="#e5e7eb" stroke-width="1"/>
<text x="82" y="403.1" text-anchor="end" fill="#111827" font-size="12">0.50</text>
<line x1="90" y1="320.2" x2="760" y2="320.2" stroke="#e5e7eb" stroke-width="1"/>
<text x="82" y="324.2" text-anchor="end" fill="#111827" font-size="12">0.55</text>
<line x1="90" y1="241.4" x2="760" y2="241.4" stroke="#e5e7eb" stroke-width="1"/>
<text x="82" y="245.4" text-anchor="end" fill="#111827" font-size="12">0.60</text>
<line x1="90" y1="162.5" x2="760" y2="162.5" stroke="#e5e7eb" stroke-width="1"/>
<text x="82" y="166.5" text-anchor="end" fill="#111827" font-size="12">0.65</text>
<line x1="90" y1="83.7" x2="760" y2="83.7" stroke="#e5e7eb" stroke-width="1"/>
<text x="82" y="87.7" text-anchor="end" fill="#111827" font-size="12">0.70</text>
<line x1="90.0" y1="70" x2="90.0" y2="450" stroke="#e5e7eb" stroke-width="1"/>
<text x="90.0" y="468" text-anchor="middle" fill="#111827" font-size="12">0</text>
<line x1="257.5" y1="70" x2="257.5" y2="450" stroke="#e5e7eb" stroke-width="1"/>
<text x="257.5" y="468" text-anchor="middle" fill="#111827" font-size="12">0.02</text>
<line x1="425.0" y1="70" x2="425.0" y2="450" stroke="#e5e7eb" stroke-width="1"/>
<text x="425.0" y="468" text-anchor="middle" fill="#111827" font-size="12">0.04</text>
<line x1="592.5" y1="70" x2="592.5" y2="450" stroke="#e5e7eb" stroke-width="1"/>
<text x="592.5" y="468" text-anchor="middle" fill="#111827" font-size="12">0.06</text>
<line x1="760.0" y1="70" x2="760.0" y2="450" stroke="#e5e7eb" stroke-width="1"/>
<text x="760.0" y="468" text-anchor="middle" fill="#111827" font-size="12">0.08</text>
<text x="425.0" y="492" text-anchor="middle" fill="#111827" font-size="13" font-weight="600">Per-slot anomaly probability  p</text>
<text transform="translate(38,260.0) rotate(-90)" text-anchor="middle" fill="#111827" font-size="13" font-weight="600">Mean utility  (0–1)</text>
<polyline points="90.0,185.9 131.9,208.2 173.8,270.5 257.5,257.9 592.5,412.2 760.0,412.2" fill="none" stroke="#7f8c8d" stroke-width="2.5" />
<circle cx="90.0" cy="185.9" r="3.5" fill="#ffffff" stroke="#7f8c8d" stroke-width="2"/>
<circle cx="131.9" cy="208.2" r="3.5" fill="#ffffff" stroke="#7f8c8d" stroke-width="2"/>
<circle cx="173.8" cy="270.5" r="3.5" fill="#ffffff" stroke="#7f8c8d" stroke-width="2"/>
<circle cx="257.5" cy="257.9" r="3.5" fill="#ffffff" stroke="#7f8c8d" stroke-width="2"/>
<circle cx="592.5" cy="412.2" r="3.5" fill="#ffffff" stroke="#7f8c8d" stroke-width="2"/>
<circle cx="760.0" cy="412.2" r="3.5" fill="#ffffff" stroke="#7f8c8d" stroke-width="2"/>
<polyline points="90.0,151.6 131.9,176.3 173.8,176.3 257.5,313.6 592.5,430.0 760.0,430.0" fill="none" stroke="#3498db" stroke-width="2.5" />
<circle cx="90.0" cy="151.6" r="3.5" fill="#ffffff" stroke="#3498db" stroke-width="2"/>
<circle cx="131.9" cy="176.3" r="3.5" fill="#ffffff" stroke="#3498db" stroke-width="2"/>
<circle cx="173.8" cy="176.3" r="3.5" fill="#ffffff" stroke="#3498db" stroke-width="2"/>
<circle cx="257.5" cy="313.6" r="3.5" fill="#ffffff" stroke="#3498db" stroke-width="2"/>
<circle cx="592.5" cy="430.0" r="3.5" fill="#ffffff" stroke="#3498db" stroke-width="2"/>
<circle cx="760.0" cy="430.0" r="3.5" fill="#ffffff" stroke="#3498db" stroke-width="2"/>
<polyline points="90.0,116.2 131.9,125.8 173.8,182.1 257.5,118.4 592.5,262.4 760.0,390.1" fill="none" stroke="#27ae60" stroke-width="2.5" />
<circle cx="90.0" cy="116.2" r="3.5" fill="#ffffff" stroke="#27ae60" stroke-width="2"/>
<circle cx="131.9" cy="125.8" r="3.5" fill="#ffffff" stroke="#27ae60" stroke-width="2"/>
<circle cx="173.8" cy="182.1" r="3.5" fill="#ffffff" stroke="#27ae60" stroke-width="2"/>
<circle cx="257.5" cy="118.4" r="3.5" fill="#ffffff" stroke="#27ae60" stroke-width="2"/>
<circle cx="592.5" cy="262.4" r="3.5" fill="#ffffff" stroke="#27ae60" stroke-width="2"/>
<circle cx="760.0" cy="390.1" r="3.5" fill="#ffffff" stroke="#27ae60" stroke-width="2"/>
<polyline points="90.0,96.7 131.9,106.2 173.8,164.0 257.5,101.0 592.5,245.5 760.0,356.5" fill="none" stroke="#c0392b" stroke-width="2.5" />
<circle cx="90.0" cy="96.7" r="3.5" fill="#ffffff" stroke="#c0392b" stroke-width="2"/>
<circle cx="131.9" cy="106.2" r="3.5" fill="#ffffff" stroke="#c0392b" stroke-width="2"/>
<circle cx="173.8" cy="164.0" r="3.5" fill="#ffffff" stroke="#c0392b" stroke-width="2"/>
<circle cx="257.5" cy="101.0" r="3.5" fill="#ffffff" stroke="#c0392b" stroke-width="2"/>
<circle cx="592.5" cy="245.5" r="3.5" fill="#ffffff" stroke="#c0392b" stroke-width="2"/>
<circle cx="760.0" cy="356.5" r="3.5" fill="#ffffff" stroke="#c0392b" stroke-width="2"/>
<rect x="784" y="76" width="22" height="4" fill="#7f8c8d" rx="2"/>
<circle cx="795" cy="78" r="4" fill="#7f8c8d"/>
<text x="816" y="82" fill="#111827" font-size="12">Static ISAC</text>
<rect x="784" y="98" width="22" height="4" fill="#3498db" rx="2"/>
<circle cx="795" cy="100" r="4" fill="#3498db"/>
<text x="816" y="104" fill="#111827" font-size="12">DT only</text>
<rect x="784" y="120" width="22" height="4" fill="#27ae60" rx="2"/>
<circle cx="795" cy="122" r="4" fill="#27ae60"/>
<text x="816" y="126" fill="#111827" font-size="12">DT + QA</text>
<rect x="784" y="142" width="22" height="4" fill="#c0392b" rx="2"/>
<circle cx="795" cy="144" r="4" fill="#c0392b"/>
<text x="816" y="148" fill="#111827" font-size="12">Full (Proposed)</text>
<circle cx="90.0" cy="96.7" r="6" fill="none" stroke="#111827" stroke-width="1.5"/>
<text x="100.0" y="86.7" fill="#111827" font-size="12" font-weight="600">Full peak = 0.692</text>
</svg>
