<svg xmlns="http://www.w3.org/2000/svg" viewBox="0 0 940 540" width="940" height="540" font-family="'Inter','Segoe UI','Helvetica Neue',Arial,sans-serif" role="img" aria-label="Scalability vs. Number of Targets">

<defs>
  <filter id="panelShadow" x="-5%" y="-5%" width="110%" height="115%">
    <feGaussianBlur in="SourceAlpha" stdDeviation="2.2"/>
    <feOffset dx="0" dy="2"/>
    <feComponentTransfer><feFuncA type="linear" slope="0.18"/></feComponentTransfer>
    <feMerge><feMergeNode/><feMergeNode in="SourceGraphic"/></feMerge>
  </filter>
  <filter id="pointShadow" x="-50%" y="-50%" width="200%" height="200%">
    <feGaussianBlur in="SourceAlpha" stdDeviation="1.4"/>
    <feOffset dx="0" dy="1"/>
    <feComponentTransfer><feFuncA type="linear" slope="0.35"/></feComponentTransfer>
    <feMerge><feMergeNode/><feMergeNode in="SourceGraphic"/></feMerge>
  </filter>
  <marker id="mArrow" viewBox="0 0 10 10" refX="9" refY="5" markerWidth="8" markerHeight="8" orient="auto-start-reverse">
    <path d="M0,0 L10,5 L0,10 z" fill="#0f172a"/>
  </marker>
</defs>

<rect width="100%" height="100%" fill="#ffffff"/>
<text x="470.0" y="36" text-anchor="middle" font-size="20" font-weight="800" fill="#0f172a">Scalability vs. Number of Targets</text>
<text x="470.0" y="60" text-anchor="middle" font-size="13" fill="#475569">Swerling-I targets, fixed user population</text>
<g filter="url(#panelShadow)"><rect x="90" y="90" width="700" height="370" fill="#fdfefe" stroke="#cbd5e1" stroke-width="1"/></g><line x1="90" y1="434.4" x2="790" y2="434.4" stroke="#f1f5f9" stroke-width="0.6"/><line x1="90" y1="409.9" x2="790" y2="409.9" stroke="#f1f5f9" stroke-width="0.6"/><line x1="90" y1="361.0" x2="790" y2="361.0" stroke="#f1f5f9" stroke-width="0.6"/><line x1="90" y1="336.6" x2="790" y2="336.6" stroke="#f1f5f9" stroke-width="0.6"/><line x1="90" y1="287.7" x2="790" y2="287.7" stroke="#f1f5f9" stroke-width="0.6"/><line x1="90" y1="263.3" x2="790" y2="263.3" stroke="#f1f5f9" stroke-width="0.6"/><line x1="90" y1="214.4" x2="790" y2="214.4" stroke="#f1f5f9" stroke-width="0.6"/><line x1="90" y1="190.0" x2="790" y2="190.0" stroke="#f1f5f9" stroke-width="0.6"/><line x1="90" y1="141.1" x2="790" y2="141.1" stroke="#f1f5f9" stroke-width="0.6"/><line x1="90" y1="116.7" x2="790" y2="116.7" stroke="#f1f5f9" stroke-width="0.6"/><line x1="90" y1="458.8" x2="790" y2="458.8" stroke="#e2e8f0" stroke-width="1"/><text x="80" y="462.8" text-anchor="end" fill="#475569" font-size="11">0.150</text><line x1="90" y1="385.5" x2="790" y2="385.5" stroke="#e2e8f0" stroke-width="1"/><text x="80" y="389.5" text-anchor="end" fill="#475569" font-size="11">0.200</text><line x1="90" y1="312.2" x2="790" y2="312.2" stroke="#e2e8f0" stroke-width="1"/><text x="80" y="316.2" text-anchor="end" fill="#475569" font-size="11">0.250</text><line x1="90" y1="238.9" x2="790" y2="238.9" stroke="#e2e8f0" stroke-width="1"/><text x="80" y="242.9" text-anchor="end" fill="#475569" font-size="11">0.300</text><line x1="90" y1="165.6" x2="790" y2="165.6" stroke="#e2e8f0" stroke-width="1"/><text x="80" y="169.6" text-anchor="end" fill="#475569" font-size="11">0.350</text><line x1="90" y1="92.3" x2="790" y2="92.3" stroke="#e2e8f0" stroke-width="1"/><text x="80" y="96.3" text-anchor="end" fill="#475569" font-size="11">0.400</text><line x1="206.7" y1="90" x2="206.7" y2="460" stroke="#e2e8f0" stroke-width="1"/><text x="206.7" y="478" text-anchor="middle" fill="#475569" font-size="11">5</text><line x1="401.1" y1="90" x2="401.1" y2="460" stroke="#e2e8f0" stroke-width="1"/><text x="401.1" y="478" text-anchor="middle" fill="#475569" font-size="11">10</text><line x1="595.6" y1="90" x2="595.6" y2="460" stroke="#e2e8f0" stroke-width="1"/><text x="595.6" y="478" text-anchor="middle" fill="#475569" font-size="11">15</text><line x1="790.0" y1="90" x2="790.0" y2="460" stroke="#e2e8f0" stroke-width="1"/><text x="790.0" y="478" text-anchor="middle" fill="#475569" font-size="11">20</text><text x="440.0" y="504" text-anchor="middle" fill="#0f172a" font-size="13" font-weight="600">Targets  K</text><text transform="translate(38,275.0) rotate(-90)" text-anchor="middle" fill="#0f172a" font-size="13" font-weight="600">Mean utility</text>
<polygon points="90.0,328.9 206.7,205.8 401.1,285.2 595.6,233.7 790.0,122.2 790.0,384.0 595.6,370.8 401.1,306.2 206.7,372.0 90.0,378.6" fill="#64748b" opacity="0.14"/>
<polygon points="90.0,296.7 206.7,240.9 401.1,288.7 595.6,281.6 790.0,277.2 790.0,368.2 595.6,291.6 401.1,291.1 206.7,443.9 90.0,324.2" fill="#0284c7" opacity="0.14"/>
<polygon points="90.0,177.9 206.7,239.9 401.1,277.2 595.6,314.7 790.0,272.9 790.0,285.0 595.6,330.6 401.1,293.3 206.7,308.2 90.0,380.8" fill="#c0392b" opacity="0.14"/>
<polyline points="90.0,353.7 206.7,288.9 401.1,295.7 595.6,302.3 790.0,253.1" fill="none" stroke="#64748b" stroke-width="2.4"  stroke-linejoin="round" stroke-linecap="round"/>
<circle cx="90.0" cy="353.7" r="4" fill="#ffffff" stroke="#64748b" stroke-width="2.2" filter="url(#pointShadow)"/>
<circle cx="206.7" cy="288.9" r="4" fill="#ffffff" stroke="#64748b" stroke-width="2.2" filter="url(#pointShadow)"/>
<circle cx="401.1" cy="295.7" r="4" fill="#ffffff" stroke="#64748b" stroke-width="2.2" filter="url(#pointShadow)"/>
<circle cx="595.6" cy="302.3" r="4" fill="#ffffff" stroke="#64748b" stroke-width="2.2" filter="url(#pointShadow)"/>
<circle cx="790.0" cy="253.1" r="4" fill="#ffffff" stroke="#64748b" stroke-width="2.2" filter="url(#pointShadow)"/>
<polyline points="90.0,310.4 206.7,342.4 401.1,289.9 595.6,286.6 790.0,322.7" fill="none" stroke="#0284c7" stroke-width="2.4"  stroke-linejoin="round" stroke-linecap="round"/>
<circle cx="90.0" cy="310.4" r="4" fill="#ffffff" stroke="#0284c7" stroke-width="2.2" filter="url(#pointShadow)"/>
<circle cx="206.7" cy="342.4" r="4" fill="#ffffff" stroke="#0284c7" stroke-width="2.2" filter="url(#pointShadow)"/>
<circle cx="401.1" cy="289.9" r="4" fill="#ffffff" stroke="#0284c7" stroke-width="2.2" filter="url(#pointShadow)"/>
<circle cx="595.6" cy="286.6" r="4" fill="#ffffff" stroke="#0284c7" stroke-width="2.2" filter="url(#pointShadow)"/>
<circle cx="790.0" cy="322.7" r="4" fill="#ffffff" stroke="#0284c7" stroke-width="2.2" filter="url(#pointShadow)"/>
<polyline points="90.0,279.4 206.7,274.0 401.1,285.2 595.6,322.7 790.0,278.9" fill="none" stroke="#c0392b" stroke-width="3.2"  stroke-linejoin="round" stroke-linecap="round"/>
<circle cx="90.0" cy="279.4" r="5" fill="#ffffff" stroke="#c0392b" stroke-width="2.2" filter="url(#pointShadow)"/>
<circle cx="206.7" cy="274.0" r="5" fill="#ffffff" stroke="#c0392b" stroke-width="2.2" filter="url(#pointShadow)"/>
<circle cx="401.1" cy="285.2" r="5" fill="#ffffff" stroke="#c0392b" stroke-width="2.2" filter="url(#pointShadow)"/>
<circle cx="595.6" cy="322.7" r="5" fill="#ffffff" stroke="#c0392b" stroke-width="2.2" filter="url(#pointShadow)"/>
<circle cx="790.0" cy="278.9" r="5" fill="#ffffff" stroke="#c0392b" stroke-width="2.2" filter="url(#pointShadow)"/>
<g filter="url(#panelShadow)"><rect x="812" y="98" width="180" height="108" rx="8" fill="#ffffff" stroke="#cbd5e1"/></g><text x="822" y="116" fill="#0f172a" font-size="12" font-weight="700">Method</text><rect x="822" y="124" width="22" height="10" fill="#64748b" opacity="0.35" rx="2"/><line x1="822" y1="129" x2="844" y2="129" stroke="#64748b" stroke-width="2"/><text x="854" y="134" fill="#0f172a" font-size="12">Static ISAC</text><rect x="822" y="146" width="22" height="10" fill="#0284c7" opacity="0.35" rx="2"/><line x1="822" y1="151" x2="844" y2="151" stroke="#0284c7" stroke-width="2"/><text x="854" y="156" fill="#0f172a" font-size="12">DT only</text><rect x="822" y="168" width="22" height="10" fill="#c0392b" opacity="0.35" rx="2"/><line x1="822" y1="173" x2="844" y2="173" stroke="#c0392b" stroke-width="2"/><text x="854" y="178" fill="#0f172a" font-size="12">Full (Proposed)</text>
</svg>