<svg xmlns="http://www.w3.org/2000/svg" viewBox="0 0 980 540" width="980" height="540" font-family="'Inter','Segoe UI','Helvetica Neue',Arial,sans-serif" role="img" aria-label="Baseline Dashboard — Normalised Metrics per Method">

<defs>
  <filter id="panelShadow" x="-5%" y="-5%" width="110%" height="115%">
    <feGaussianBlur in="SourceAlpha" stdDeviation="2.2"/>
    <feOffset dx="0" dy="2"/>
    <feComponentTransfer><feFuncA type="linear" slope="0.18"/></feComponentTransfer>
    <feMerge><feMergeNode/><feMergeNode in="SourceGraphic"/></feMerge>
  </filter>
  <filter id="pointShadow" x="-50%" y="-50%" width="200%" height="200%">
    <feGaussianBlur in="SourceAlpha" stdDeviation="1.4"/>
    <feOffset dx="0" dy="1"/>
    <feComponentTransfer><feFuncA type="linear" slope="0.35"/></feComponentTransfer>
    <feMerge><feMergeNode/><feMergeNode in="SourceGraphic"/></feMerge>
  </filter>
  <marker id="mArrow" viewBox="0 0 10 10" refX="9" refY="5" markerWidth="8" markerHeight="8" orient="auto-start-reverse">
    <path d="M0,0 L10,5 L0,10 z" fill="#0f172a"/>
  </marker>
</defs>

<rect width="100%" height="100%" fill="#ffffff"/>
<text x="490.0" y="36" text-anchor="middle" font-size="20" font-weight="800" fill="#0f172a">Baseline Dashboard — Normalised Metrics per Method</text>
<text x="490.0" y="60" text-anchor="middle" font-size="13" fill="#475569">Each metric rescaled to its max across methods (higher = better)</text>
<defs><linearGradient id="gb0" x1="0" x2="0" y1="0" y2="1"><stop offset="0" stop-color="#1f4e79"/><stop offset="1" stop-color="#173a5a"/></linearGradient><linearGradient id="gb1" x1="0" x2="0" y1="0" y2="1"><stop offset="0" stop-color="#c0392b"/><stop offset="1" stop-color="#902a20"/></linearGradient><linearGradient id="gb2" x1="0" x2="0" y1="0" y2="1"><stop offset="0" stop-color="#16a34a"/><stop offset="1" stop-color="#107a37"/></linearGradient><linearGradient id="gb3" x1="0" x2="0" y1="0" y2="1"><stop offset="0" stop-color="#7c3aed"/><stop offset="1" stop-color="#5d2bb1"/></linearGradient></defs>
<g filter="url(#panelShadow)"><rect x="90" y="90" width="750" height="370" fill="#fdfefe" stroke="#cbd5e1" stroke-width="1"/></g><line x1="90" y1="439.1" x2="840" y2="439.1" stroke="#f1f5f9" stroke-width="0.6"/><line x1="90" y1="418.2" x2="840" y2="418.2" stroke="#f1f5f9" stroke-width="0.6"/><line x1="90" y1="376.4" x2="840" y2="376.4" stroke="#f1f5f9" stroke-width="0.6"/><line x1="90" y1="355.5" x2="840" y2="355.5" stroke="#f1f5f9" stroke-width="0.6"/><line x1="90" y1="313.7" x2="840" y2="313.7" stroke="#f1f5f9" stroke-width="0.6"/><line x1="90" y1="292.8" x2="840" y2="292.8" stroke="#f1f5f9" stroke-width="0.6"/><line x1="90" y1="251.0" x2="840" y2="251.0" stroke="#f1f5f9" stroke-width="0.6"/><line x1="90" y1="230.1" x2="840" y2="230.1" stroke="#f1f5f9" stroke-width="0.6"/><line x1="90" y1="188.2" x2="840" y2="188.2" stroke="#f1f5f9" stroke-width="0.6"/><line x1="90" y1="167.3" x2="840" y2="167.3" stroke="#f1f5f9" stroke-width="0.6"/><line x1="90" y1="460.0" x2="840" y2="460.0" stroke="#e2e8f0" stroke-width="1"/><text x="80" y="464.0" text-anchor="end" fill="#475569" font-size="11">0</text><line x1="90" y1="397.3" x2="840" y2="397.3" stroke="#e2e8f0" stroke-width="1"/><text x="80" y="401.3" text-anchor="end" fill="#475569" font-size="11">0.200</text><line x1="90" y1="334.6" x2="840" y2="334.6" stroke="#e2e8f0" stroke-width="1"/><text x="80" y="338.6" text-anchor="end" fill="#475569" font-size="11">0.400</text><line x1="90" y1="271.9" x2="840" y2="271.9" stroke="#e2e8f0" stroke-width="1"/><text x="80" y="275.9" text-anchor="end" fill="#475569" font-size="11">0.600</text><line x1="90" y1="209.2" x2="840" y2="209.2" stroke="#e2e8f0" stroke-width="1"/><text x="80" y="213.2" text-anchor="end" fill="#475569" font-size="11">0.800</text><line x1="90" y1="146.4" x2="840" y2="146.4" stroke="#e2e8f0" stroke-width="1"/><text x="80" y="150.4" text-anchor="end" fill="#475569" font-size="11">1</text><line x1="152.5" y1="90" x2="152.5" y2="460" stroke="#e2e8f0" stroke-width="1"/><text x="152.5" y="478" text-anchor="middle" fill="#475569" font-size="11">Static ISAC</text><line x1="277.5" y1="90" x2="277.5" y2="460" stroke="#e2e8f0" stroke-width="1"/><text x="277.5" y="478" text-anchor="middle" fill="#475569" font-size="11">Reactive</text><line x1="402.5" y1="90" x2="402.5" y2="460" stroke="#e2e8f0" stroke-width="1"/><text x="402.5" y="478" text-anchor="middle" fill="#475569" font-size="11">DT only</text><line x1="527.5" y1="90" x2="527.5" y2="460" stroke="#e2e8f0" stroke-width="1"/><text x="527.5" y="478" text-anchor="middle" fill="#475569" font-size="11">DT + QA</text><line x1="652.5" y1="90" x2="652.5" y2="460" stroke="#e2e8f0" stroke-width="1"/><text x="652.5" y="478" text-anchor="middle" fill="#475569" font-size="11">DT + Trust</text><line x1="777.5" y1="90" x2="777.5" y2="460" stroke="#e2e8f0" stroke-width="1"/><text x="777.5" y="478" text-anchor="middle" fill="#475569" font-size="11">Full (Proposed)</text><text transform="translate(38,275.0) rotate(-90)" text-anchor="middle" fill="#0f172a" font-size="13" font-weight="600">Normalised score</text>
<rect x="720.8" y="90" width="113.3" height="370" fill="#fef3c7" opacity="0.55" rx="6"/>
<rect x="98.8" y="228.7" width="24.2" height="231.3" fill="url(#gb0)" stroke="#153654" stroke-width="0.8" rx="2"/>
<text x="110.8" y="224.7" text-anchor="middle" fill="#0f172a" font-size="9.5" font-weight="600">0.74</text>
<rect x="223.8" y="234.4" width="24.2" height="225.6" fill="url(#gb0)" stroke="#153654" stroke-width="0.8" rx="2"/>
<text x="235.8" y="230.4" text-anchor="middle" fill="#0f172a" font-size="9.5" font-weight="600">0.72</text>
<rect x="348.8" y="215.1" width="24.2" height="244.9" fill="url(#gb0)" stroke="#153654" stroke-width="0.8" rx="2"/>
<text x="360.8" y="211.1" text-anchor="middle" fill="#0f172a" font-size="9.5" font-weight="600">0.78</text>
<rect x="473.8" y="153.3" width="24.2" height="306.7" fill="url(#gb0)" stroke="#153654" stroke-width="0.8" rx="2"/>
<text x="485.8" y="149.3" text-anchor="middle" fill="#0f172a" font-size="9.5" font-weight="600">0.98</text>
<rect x="598.8" y="201.8" width="24.2" height="258.2" fill="url(#gb0)" stroke="#153654" stroke-width="0.8" rx="2"/>
<text x="610.8" y="197.8" text-anchor="middle" fill="#0f172a" font-size="9.5" font-weight="600">0.82</text>
<rect x="723.8" y="146.4" width="24.2" height="313.6" fill="url(#gb0)" stroke="#153654" stroke-width="0.8" rx="2"/>
<text x="735.8" y="142.4" text-anchor="middle" fill="#0f172a" font-size="9.5" font-weight="600">1</text>
<rect x="124.9" y="162.5" width="24.2" height="297.5" fill="url(#gb1)" stroke="#86271e" stroke-width="0.8" rx="2"/>
<text x="137.0" y="158.5" text-anchor="middle" fill="#0f172a" font-size="9.5" font-weight="600">0.95</text>
<rect x="249.9" y="164.6" width="24.2" height="295.4" fill="url(#gb1)" stroke="#86271e" stroke-width="0.8" rx="2"/>
<text x="262.0" y="160.6" text-anchor="middle" fill="#0f172a" font-size="9.5" font-weight="600">0.94</text>
<rect x="374.9" y="197.9" width="24.2" height="262.1" fill="url(#gb1)" stroke="#86271e" stroke-width="0.8" rx="2"/>
<text x="387.0" y="193.9" text-anchor="middle" fill="#0f172a" font-size="9.5" font-weight="600">0.84</text>
<rect x="499.9" y="170.9" width="24.2" height="289.1" fill="url(#gb1)" stroke="#86271e" stroke-width="0.8" rx="2"/>
<text x="512.0" y="166.9" text-anchor="middle" fill="#0f172a" font-size="9.5" font-weight="600">0.92</text>
<rect x="624.9" y="194.4" width="24.2" height="265.6" fill="url(#gb1)" stroke="#86271e" stroke-width="0.8" rx="2"/>
<text x="637.0" y="190.4" text-anchor="middle" fill="#0f172a" font-size="9.5" font-weight="600">0.85</text>
<rect x="749.9" y="146.4" width="24.2" height="313.6" fill="url(#gb1)" stroke="#86271e" stroke-width="0.8" rx="2"/>
<text x="762.0" y="142.4" text-anchor="middle" fill="#0f172a" font-size="9.5" font-weight="600">1</text>
<rect x="151.1" y="237.4" width="24.2" height="222.6" fill="url(#gb2)" stroke="#0f7233" stroke-width="0.8" rx="2"/>
<text x="163.2" y="233.4" text-anchor="middle" fill="#0f172a" font-size="9.5" font-weight="600">0.71</text>
<rect x="276.1" y="258.8" width="24.2" height="201.2" fill="url(#gb2)" stroke="#0f7233" stroke-width="0.8" rx="2"/>
<text x="288.2" y="254.8" text-anchor="middle" fill="#0f172a" font-size="9.5" font-weight="600">0.64</text>
<rect x="401.1" y="153.4" width="24.2" height="306.6" fill="url(#gb2)" stroke="#0f7233" stroke-width="0.8" rx="2"/>
<text x="413.2" y="149.4" text-anchor="middle" fill="#0f172a" font-size="9.5" font-weight="600">0.98</text>
<rect x="526.1" y="146.4" width="24.2" height="313.6" fill="url(#gb2)" stroke="#0f7233" stroke-width="0.8" rx="2"/>
<text x="538.2" y="142.4" text-anchor="middle" fill="#0f172a" font-size="9.5" font-weight="600">1</text>
<rect x="651.1" y="157.3" width="24.2" height="302.7" fill="url(#gb2)" stroke="#0f7233" stroke-width="0.8" rx="2"/>
<text x="663.2" y="153.3" text-anchor="middle" fill="#0f172a" font-size="9.5" font-weight="600">0.97</text>
<rect x="776.1" y="147.4" width="24.2" height="312.6" fill="url(#gb2)" stroke="#0f7233" stroke-width="0.8" rx="2"/>
<text x="788.2" y="143.4" text-anchor="middle" fill="#0f172a" font-size="9.5" font-weight="600">1.00</text>
<rect x="177.3" y="397.3" width="24.2" height="62.7" fill="url(#gb3)" stroke="#5628a5" stroke-width="0.8" rx="2"/>
<text x="189.4" y="393.3" text-anchor="middle" fill="#0f172a" font-size="9.5" font-weight="600">0.20</text>
<rect x="302.3" y="392.6" width="24.2" height="67.4" fill="url(#gb3)" stroke="#5628a5" stroke-width="0.8" rx="2"/>
<text x="314.4" y="388.6" text-anchor="middle" fill="#0f172a" font-size="9.5" font-weight="600">0.22</text>
<rect x="427.3" y="394.4" width="24.2" height="65.6" fill="url(#gb3)" stroke="#5628a5" stroke-width="0.8" rx="2"/>
<text x="439.4" y="390.4" text-anchor="middle" fill="#0f172a" font-size="9.5" font-weight="600">0.21</text>
<rect x="552.3" y="392.0" width="24.2" height="68.0" fill="url(#gb3)" stroke="#5628a5" stroke-width="0.8" rx="2"/>
<text x="564.4" y="388.0" text-anchor="middle" fill="#0f172a" font-size="9.5" font-weight="600">0.22</text>
<rect x="677.3" y="397.0" width="24.2" height="63.0" fill="url(#gb3)" stroke="#5628a5" stroke-width="0.8" rx="2"/>
<text x="689.4" y="393.0" text-anchor="middle" fill="#0f172a" font-size="9.5" font-weight="600">0.20</text>
<rect x="802.3" y="395.1" width="24.2" height="64.9" fill="url(#gb3)" stroke="#5628a5" stroke-width="0.8" rx="2"/>
<text x="814.4" y="391.1" text-anchor="middle" fill="#0f172a" font-size="9.5" font-weight="600">0.21</text>
<g filter="url(#panelShadow)"><rect x="862" y="98" width="180" height="130" rx="8" fill="#ffffff" stroke="#cbd5e1"/></g><text x="872" y="116" fill="#0f172a" font-size="12" font-weight="700">Series</text><rect x="872" y="124" width="22" height="10" fill="#1f4e79" rx="2"/><text x="904" y="134" fill="#0f172a" font-size="12">Utility</text><rect x="872" y="146" width="22" height="10" fill="#c0392b" rx="2"/><text x="904" y="156" fill="#0f172a" font-size="12">Rate</text><rect x="872" y="168" width="22" height="10" fill="#16a34a" rx="2"/><text x="904" y="178" fill="#0f172a" font-size="12">P_d</text><rect x="872" y="190" width="22" height="10" fill="#7c3aed" rx="2"/><text x="904" y="200" fill="#0f172a" font-size="12">Energy⁻¹</text>
</svg>