<svg xmlns="http://www.w3.org/2000/svg" viewBox="0 0 880 520" width="880" height="520" font-family="'Inter','Segoe UI','Helvetica Neue',Arial,sans-serif" font-size="14" role="img" aria-label="Energy–Utility Pareto View">
<rect width="100%" height="100%" fill="#ffffff"/>
<text x="440.0" y="30" text-anchor="middle" font-size="18" font-weight="700" fill="#111827">Energy–Utility Pareto View</text>
<rect x="90" y="70" width="670" height="380" fill="#fbfcfe" stroke="#1f2937" stroke-width="1.2"/>
<line x1="90" y1="425.0" x2="760" y2="425.0" stroke="#e5e7eb" stroke-width="1"/>
<text x="82" y="429.0" text-anchor="end" fill="#111827" font-size="12">0.45</text>
<line x1="90" y1="329.4" x2="760" y2="329.4" stroke="#e5e7eb" stroke-width="1"/>
<text x="82" y="333.4" text-anchor="end" fill="#111827" font-size="12">0.50</text>
<line x1="90" y1="233.7" x2="760" y2="233.7" stroke="#e5e7eb" stroke-width="1"/>
<text x="82" y="237.7" text-anchor="end" fill="#111827" font-size="12">0.55</text>
<line x1="90" y1="138.1" x2="760" y2="138.1" stroke="#e5e7eb" stroke-width="1"/>
<text x="82" y="142.1" text-anchor="end" fill="#111827" font-size="12">0.60</text>
<line x1="169.3" y1="70" x2="169.3" y2="450" stroke="#e5e7eb" stroke-width="1"/>
<text x="169.3" y="468" text-anchor="middle" fill="#111827" font-size="12">0.98</text>
<line x1="366.2" y1="70" x2="366.2" y2="450" stroke="#e5e7eb" stroke-width="1"/>
<text x="366.2" y="468" text-anchor="middle" fill="#111827" font-size="12">0.99</text>
<line x1="563.1" y1="70" x2="563.1" y2="450" stroke="#e5e7eb" stroke-width="1"/>
<text x="563.1" y="468" text-anchor="middle" fill="#111827" font-size="12">0.99</text>
<line x1="760.0" y1="70" x2="760.0" y2="450" stroke="#e5e7eb" stroke-width="1"/>
<text x="760.0" y="468" text-anchor="middle" fill="#111827" font-size="12">1</text>
<text x="425.0" y="492" text-anchor="middle" fill="#111827" font-size="13" font-weight="600">Normalised energy  E / E_max</text>
<text transform="translate(38,260.0) rotate(-90)" text-anchor="middle" fill="#111827" font-size="13" font-weight="600">Mean utility</text>
<polyline points="90.0,122.9 169.3,430.0 396.1,356.9 479.5,96.7 723.2,306.7 760.0,408.7" fill="none" stroke="#1f4e79" stroke-width="2.5" stroke-dasharray="6,4"/>
<circle cx="90.0" cy="122.9" r="3.5" fill="#ffffff" stroke="#1f4e79" stroke-width="2"/>
<circle cx="169.3" cy="430.0" r="3.5" fill="#ffffff" stroke="#1f4e79" stroke-width="2"/>
<circle cx="396.1" cy="356.9" r="3.5" fill="#ffffff" stroke="#1f4e79" stroke-width="2"/>
<circle cx="479.5" cy="96.7" r="3.5" fill="#ffffff" stroke="#1f4e79" stroke-width="2"/>
<circle cx="723.2" cy="306.7" r="3.5" fill="#ffffff" stroke="#1f4e79" stroke-width="2"/>
<circle cx="760.0" cy="408.7" r="3.5" fill="#ffffff" stroke="#1f4e79" stroke-width="2"/>
<rect x="784" y="76" width="22" height="4" fill="#1f4e79" rx="2"/>
<circle cx="795" cy="78" r="4" fill="#1f4e79"/>
<text x="816" y="82" fill="#111827" font-size="12">Method operating points</text>
<circle cx="90.0" cy="122.9" r="6" fill="none" stroke="#111827" stroke-width="1.5"/>
<text x="100.0" y="112.9" fill="#111827" font-size="12" font-weight="600">DT + QA</text>
<circle cx="169.3" cy="430.0" r="6" fill="none" stroke="#111827" stroke-width="1.5"/>
<text x="179.3" y="420.0" fill="#111827" font-size="12" font-weight="600">Reactive</text>
<circle cx="396.1" cy="356.9" r="6" fill="none" stroke="#111827" stroke-width="1.5"/>
<text x="406.1" y="346.9" fill="#111827" font-size="12" font-weight="600">DT only</text>
<circle cx="479.5" cy="96.7" r="6" fill="none" stroke="#111827" stroke-width="1.5"/>
<text x="489.5" y="86.7" fill="#111827" font-size="12" font-weight="600">Full (Proposed)</text>
<circle cx="723.2" cy="306.7" r="6" fill="none" stroke="#111827" stroke-width="1.5"/>
<text x="733.2" y="296.7" fill="#111827" font-size="12" font-weight="600">DT + Trust</text>
<circle cx="760.0" cy="408.7" r="6" fill="none" stroke="#111827" stroke-width="1.5"/>
<text x="770.0" y="398.7" fill="#111827" font-size="12" font-weight="600">Static ISAC</text>
</svg>
