<svg xmlns="http://www.w3.org/2000/svg" viewBox="0 0 940 540" width="940" height="540" font-family="'Inter','Segoe UI','Helvetica Neue',Arial,sans-serif" role="img" aria-label="Quantum-Assisted Shortlist Size  —  Utility vs. Wall-Clock">

<defs>
  <filter id="panelShadow" x="-5%" y="-5%" width="110%" height="115%">
    <feGaussianBlur in="SourceAlpha" stdDeviation="2.2"/>
    <feOffset dx="0" dy="2"/>
    <feComponentTransfer><feFuncA type="linear" slope="0.18"/></feComponentTransfer>
    <feMerge><feMergeNode/><feMergeNode in="SourceGraphic"/></feMerge>
  </filter>
  <filter id="pointShadow" x="-50%" y="-50%" width="200%" height="200%">
    <feGaussianBlur in="SourceAlpha" stdDeviation="1.4"/>
    <feOffset dx="0" dy="1"/>
    <feComponentTransfer><feFuncA type="linear" slope="0.35"/></feComponentTransfer>
    <feMerge><feMergeNode/><feMergeNode in="SourceGraphic"/></feMerge>
  </filter>
  <marker id="mArrow" viewBox="0 0 10 10" refX="9" refY="5" markerWidth="8" markerHeight="8" orient="auto-start-reverse">
    <path d="M0,0 L10,5 L0,10 z" fill="#0f172a"/>
  </marker>
</defs>

<rect width="100%" height="100%" fill="#ffffff"/>
<text x="470.0" y="36" text-anchor="middle" font-size="20" font-weight="800" fill="#0f172a">Quantum-Assisted Shortlist Size  —  Utility vs. Wall-Clock</text>
<text x="470.0" y="60" text-anchor="middle" font-size="13" fill="#475569">Utility plateaus near M_s ≈ 10–20 (noise-dominated); wall-clock grows ~linearly.  Structural reduction at M=50, M_s=12: 76%</text>
<g filter="url(#panelShadow)"><rect x="90" y="90" width="700" height="370" fill="#fdfefe" stroke="#cbd5e1" stroke-width="1"/></g><line x1="90" y1="416.1" x2="790" y2="416.1" stroke="#f1f5f9" stroke-width="0.6"/><line x1="90" y1="383.0" x2="790" y2="383.0" stroke="#f1f5f9" stroke-width="0.6"/><line x1="90" y1="316.9" x2="790" y2="316.9" stroke="#f1f5f9" stroke-width="0.6"/><line x1="90" y1="283.8" x2="790" y2="283.8" stroke="#f1f5f9" stroke-width="0.6"/><line x1="90" y1="217.6" x2="790" y2="217.6" stroke="#f1f5f9" stroke-width="0.6"/><line x1="90" y1="184.6" x2="790" y2="184.6" stroke="#f1f5f9" stroke-width="0.6"/><line x1="90" y1="449.2" x2="790" y2="449.2" stroke="#e2e8f0" stroke-width="1"/><text x="80" y="453.2" text-anchor="end" fill="#475569" font-size="11">0.150</text><line x1="90" y1="350.0" x2="790" y2="350.0" stroke="#e2e8f0" stroke-width="1"/><text x="80" y="354.0" text-anchor="end" fill="#475569" font-size="11">0.200</text><line x1="90" y1="250.7" x2="790" y2="250.7" stroke="#e2e8f0" stroke-width="1"/><text x="80" y="254.7" text-anchor="end" fill="#475569" font-size="11">0.250</text><line x1="90" y1="151.5" x2="790" y2="151.5" stroke="#e2e8f0" stroke-width="1"/><text x="80" y="155.5" text-anchor="end" fill="#475569" font-size="11">0.300</text><line x1="186.6" y1="90" x2="186.6" y2="460" stroke="#e2e8f0" stroke-width="1"/><text x="186.6" y="478" text-anchor="middle" fill="#475569" font-size="11">5</text><line x1="307.2" y1="90" x2="307.2" y2="460" stroke="#e2e8f0" stroke-width="1"/><text x="307.2" y="478" text-anchor="middle" fill="#475569" font-size="11">10</text><line x1="427.9" y1="90" x2="427.9" y2="460" stroke="#e2e8f0" stroke-width="1"/><text x="427.9" y="478" text-anchor="middle" fill="#475569" font-size="11">15</text><line x1="548.6" y1="90" x2="548.6" y2="460" stroke="#e2e8f0" stroke-width="1"/><text x="548.6" y="478" text-anchor="middle" fill="#475569" font-size="11">20</text><line x1="669.3" y1="90" x2="669.3" y2="460" stroke="#e2e8f0" stroke-width="1"/><text x="669.3" y="478" text-anchor="middle" fill="#475569" font-size="11">25</text><line x1="790.0" y1="90" x2="790.0" y2="460" stroke="#e2e8f0" stroke-width="1"/><text x="790.0" y="478" text-anchor="middle" fill="#475569" font-size="11">30</text><text x="440.0" y="504" text-anchor="middle" fill="#0f172a" font-size="13" font-weight="600">Shortlist size  M_s</text><text transform="translate(38,275.0) rotate(-90)" text-anchor="middle" fill="#0f172a" font-size="13" font-weight="600">Utility  (wall-clock shown rescaled to utility axis)</text>
<polygon points="90.0,273.2 114.1,264.5 162.4,293.5 210.7,245.6 259.0,196.2 307.2,131.7 355.5,151.9 427.9,204.3 548.6,122.2 790.0,327.2 790.0,362.8 548.6,257.4 427.9,321.5 355.5,309.5 307.2,327.0 259.0,348.5 210.7,292.4 162.4,323.8 114.1,312.4 90.0,294.6" fill="#1f4e79" opacity="0.14"/>
<polyline points="90.0,283.9 114.1,288.5 162.4,308.7 210.7,269.0 259.0,272.3 307.2,229.4 355.5,230.7 427.9,262.9 548.6,189.8 790.0,345.0" fill="none" stroke="#1f4e79" stroke-width="2.4"  stroke-linejoin="round" stroke-linecap="round"/>
<circle cx="90.0" cy="283.9" r="4" fill="#ffffff" stroke="#1f4e79" stroke-width="2.2" filter="url(#pointShadow)"/>
<circle cx="114.1" cy="288.5" r="4" fill="#ffffff" stroke="#1f4e79" stroke-width="2.2" filter="url(#pointShadow)"/>
<circle cx="162.4" cy="308.7" r="4" fill="#ffffff" stroke="#1f4e79" stroke-width="2.2" filter="url(#pointShadow)"/>
<circle cx="210.7" cy="269.0" r="4" fill="#ffffff" stroke="#1f4e79" stroke-width="2.2" filter="url(#pointShadow)"/>
<circle cx="259.0" cy="272.3" r="4" fill="#ffffff" stroke="#1f4e79" stroke-width="2.2" filter="url(#pointShadow)"/>
<circle cx="307.2" cy="229.4" r="4" fill="#ffffff" stroke="#1f4e79" stroke-width="2.2" filter="url(#pointShadow)"/>
<circle cx="355.5" cy="230.7" r="4" fill="#ffffff" stroke="#1f4e79" stroke-width="2.2" filter="url(#pointShadow)"/>
<circle cx="427.9" cy="262.9" r="4" fill="#ffffff" stroke="#1f4e79" stroke-width="2.2" filter="url(#pointShadow)"/>
<circle cx="548.6" cy="189.8" r="4" fill="#ffffff" stroke="#1f4e79" stroke-width="2.2" filter="url(#pointShadow)"/>
<circle cx="790.0" cy="345.0" r="4" fill="#ffffff" stroke="#1f4e79" stroke-width="2.2" filter="url(#pointShadow)"/>
<polyline points="90.0,437.6 114.1,443.9 162.4,418.9 210.7,391.5 259.0,378.0 307.2,362.1 355.5,346.2 427.9,317.9 548.6,271.4 790.0,189.8" fill="none" stroke="#c0392b" stroke-width="2.4" stroke-dasharray="6,4" stroke-linejoin="round" stroke-linecap="round"/>
<circle cx="90.0" cy="437.6" r="4" fill="#ffffff" stroke="#c0392b" stroke-width="2.2" filter="url(#pointShadow)"/>
<circle cx="114.1" cy="443.9" r="4" fill="#ffffff" stroke="#c0392b" stroke-width="2.2" filter="url(#pointShadow)"/>
<circle cx="162.4" cy="418.9" r="4" fill="#ffffff" stroke="#c0392b" stroke-width="2.2" filter="url(#pointShadow)"/>
<circle cx="210.7" cy="391.5" r="4" fill="#ffffff" stroke="#c0392b" stroke-width="2.2" filter="url(#pointShadow)"/>
<circle cx="259.0" cy="378.0" r="4" fill="#ffffff" stroke="#c0392b" stroke-width="2.2" filter="url(#pointShadow)"/>
<circle cx="307.2" cy="362.1" r="4" fill="#ffffff" stroke="#c0392b" stroke-width="2.2" filter="url(#pointShadow)"/>
<circle cx="355.5" cy="346.2" r="4" fill="#ffffff" stroke="#c0392b" stroke-width="2.2" filter="url(#pointShadow)"/>
<circle cx="427.9" cy="317.9" r="4" fill="#ffffff" stroke="#c0392b" stroke-width="2.2" filter="url(#pointShadow)"/>
<circle cx="548.6" cy="271.4" r="4" fill="#ffffff" stroke="#c0392b" stroke-width="2.2" filter="url(#pointShadow)"/>
<circle cx="790.0" cy="189.8" r="4" fill="#ffffff" stroke="#c0392b" stroke-width="2.2" filter="url(#pointShadow)"/>
<line x1="548.6" y1="189.8" x2="570.6" y2="161.8" stroke="#0f172a" stroke-width="1"/><circle cx="548.6" cy="189.8" r="7" fill="none" stroke="#0f172a" stroke-width="1.5"/>
<rect x="566.6" y="147.8" width="229.5" height="20" rx="4" fill="#ffffff" stroke="#0f172a" stroke-width="0.8"/><text x="681.4" y="161.8" text-anchor="middle" fill="#0f172a" font-size="11" font-weight="600">argmax  U = 0.281  @ M_s = 20</text>
<g filter="url(#panelShadow)"><rect x="812" y="98" width="180" height="86" rx="8" fill="#ffffff" stroke="#cbd5e1"/></g><text x="822" y="116" fill="#0f172a" font-size="12" font-weight="700">Curve</text><rect x="822" y="124" width="22" height="10" fill="#1f4e79" opacity="0.35" rx="2"/><line x1="822" y1="129" x2="844" y2="129" stroke="#1f4e79" stroke-width="2"/><text x="854" y="134" fill="#0f172a" font-size="12">Utility</text><line x1="822" y1="152" x2="844" y2="152" stroke="#c0392b" stroke-width="2.6"/><circle cx="833" cy="152" r="3.5" fill="#ffffff" stroke="#c0392b" stroke-width="2"/><text x="854" y="156" fill="#0f172a" font-size="12">Simulator wall-clock  (rescaled)</text>
</svg>