<svg xmlns="http://www.w3.org/2000/svg" viewBox="0 0 960 460" width="960" height="460" font-family="'Inter','Segoe UI','Helvetica Neue',Arial,sans-serif" font-size="14" role="img" aria-label="Trust Recovery Transient  —  attack burst, slots 200–300">
<rect width="100%" height="100%" fill="#ffffff"/>
<text x="480.0" y="30" text-anchor="middle" font-size="18" font-weight="700" fill="#111827">Trust Recovery Transient  —  attack burst, slots 200–300</text>
<rect x="90" y="70" width="750" height="320" fill="#fbfcfe" stroke="#1f2937" stroke-width="1.2"/>
<line x1="90" y1="375.8" x2="840" y2="375.8" stroke="#e5e7eb" stroke-width="1"/>
<text x="82" y="379.8" text-anchor="end" fill="#111827" font-size="12">0</text>
<line x1="90" y1="319.2" x2="840" y2="319.2" stroke="#e5e7eb" stroke-width="1"/>
<text x="82" y="323.2" text-anchor="end" fill="#111827" font-size="12">0.20</text>
<line x1="90" y1="262.6" x2="840" y2="262.6" stroke="#e5e7eb" stroke-width="1"/>
<text x="82" y="266.6" text-anchor="end" fill="#111827" font-size="12">0.40</text>
<line x1="90" y1="205.9" x2="840" y2="205.9" stroke="#e5e7eb" stroke-width="1"/>
<text x="82" y="209.9" text-anchor="end" fill="#111827" font-size="12">0.60</text>
<line x1="90" y1="149.3" x2="840" y2="149.3" stroke="#e5e7eb" stroke-width="1"/>
<text x="82" y="153.3" text-anchor="end" fill="#111827" font-size="12">0.80</text>
<line x1="90" y1="92.7" x2="840" y2="92.7" stroke="#e5e7eb" stroke-width="1"/>
<text x="82" y="96.7" text-anchor="end" fill="#111827" font-size="12">1</text>
<line x1="90.0" y1="70" x2="90.0" y2="390" stroke="#e5e7eb" stroke-width="1"/>
<text x="90.0" y="408" text-anchor="middle" fill="#111827" font-size="12">0</text>
<line x1="240.3" y1="70" x2="240.3" y2="390" stroke="#e5e7eb" stroke-width="1"/>
<text x="240.3" y="408" text-anchor="middle" fill="#111827" font-size="12">100</text>
<line x1="390.6" y1="70" x2="390.6" y2="390" stroke="#e5e7eb" stroke-width="1"/>
<text x="390.6" y="408" text-anchor="middle" fill="#111827" font-size="12">200</text>
<line x1="540.9" y1="70" x2="540.9" y2="390" stroke="#e5e7eb" stroke-width="1"/>
<text x="540.9" y="408" text-anchor="middle" fill="#111827" font-size="12">300</text>
<line x1="691.2" y1="70" x2="691.2" y2="390" stroke="#e5e7eb" stroke-width="1"/>
<text x="691.2" y="408" text-anchor="middle" fill="#111827" font-size="12">400</text>
<text x="465.0" y="432" text-anchor="middle" fill="#111827" font-size="13" font-weight="600">Slot index</text>
<text transform="translate(38,230.0) rotate(-90)" text-anchor="middle" fill="#111827" font-size="13" font-weight="600">Trust  T(t)</text>
<rect x="390.6" y="70" width="150.3" height="320" fill="#fde2e4" opacity="0.6"/>
<text x="465.8" y="86" text-anchor="middle" fill="#7f1d1d" font-size="12" font-weight="700">attack burst</text>
<polyline points="90.0,105.8 91.5,117.6 93.0,128.3 94.5,137.9 96.0,146.6 97.5,154.4 99.0,161.4 100.5,167.8 102.0,173.4 103.5,178.6 105.0,183.2 106.5,187.3 108.0,191.0 109.5,194.4 111.0,197.4 112.5,200.2 114.0,202.6 115.6,204.8 117.1,206.8 118.6,208.6 120.1,210.2 121.6,211.6 123.1,212.9 124.6,214.1 126.1,215.1 127.6,216.1 129.1,216.9 130.6,217.7 132.1,218.4 133.6,219.0 135.1,219.6 136.6,220.1 138.1,220.5 139.6,220.9 141.1,221.3 142.6,221.7 144.1,221.9 145.6,222.2 147.1,222.5 148.6,222.7 150.1,222.9 151.6,223.1 153.1,223.2 154.6,223.4 156.1,223.5 157.6,223.6 159.1,223.7 160.6,223.8 162.1,223.9 163.6,224.0 165.2,224.1 166.7,224.1 168.2,224.2 169.7,224.2 171.2,224.3 172.7,224.3 174.2,224.3 175.7,224.4 177.2,224.4 178.7,224.4 180.2,224.5 181.7,224.5 183.2,224.5 184.7,224.5 186.2,224.5 187.7,224.5 189.2,224.6 190.7,224.6 192.2,224.6 193.7,224.6 195.2,224.6 196.7,224.6 198.2,224.6 199.7,224.6 201.2,224.6 202.7,224.6 204.2,224.6 205.7,224.6 207.2,224.7 208.7,224.7 210.2,224.6 211.7,224.6 213.2,224.7 214.7,224.7 216.3,224.7 217.8,224.7 219.3,224.7 220.8,224.7 222.3,224.7 223.8,224.7 225.3,224.6 226.8,224.6 228.3,224.6 229.8,224.6 231.3,224.6 232.8,224.6 234.3,224.6 235.8,224.7 237.3,224.6 238.8,224.6 240.3,224.7 241.8,224.6 243.3,224.7 244.8,224.7 246.3,224.7 247.8,224.7 249.3,224.7 250.8,224.7 252.3,224.7 253.8,224.7 255.3,224.7 256.8,224.7 258.3,224.7 259.8,224.7 261.3,224.7 262.8,224.7 264.3,224.7 265.9,224.7 267.4,224.7 268.9,224.7 270.4,224.7 271.9,224.7 273.4,224.7 274.9,224.7 276.4,224.7 277.9,224.7 279.4,224.7 280.9,224.7 282.4,224.7 283.9,224.7 285.4,224.7 286.9,224.7 288.4,224.7 289.9,224.7 291.4,224.7 292.9,224.7 294.4,224.7 295.9,224.7 297.4,224.7 298.9,224.7 300.4,224.7 301.9,224.7 303.4,224.7 304.9,224.7 306.4,224.7 307.9,224.7 309.4,224.7 310.9,224.7 312.4,224.7 313.9,224.7 315.5,224.7 317.0,224.7 318.5,224.7 320.0,224.7 321.5,224.7 323.0,224.7 324.5,224.7 326.0,224.7 327.5,224.7 329.0,224.7 330.5,224.7 332.0,224.7 333.5,224.7 335.0,224.7 336.5,224.6 338.0,224.6 339.5,224.6 341.0,224.6 342.5,224.6 344.0,224.6 345.5,224.7 347.0,224.6 348.5,224.6 350.0,224.7 351.5,224.7 353.0,224.7 354.5,224.7 356.0,224.7 357.5,224.7 359.0,224.7 360.5,224.7 362.0,224.7 363.5,224.7 365.1,224.7 366.6,224.7 368.1,224.7 369.6,224.7 371.1,224.7 372.6,224.7 374.1,224.7 375.6,224.7 377.1,224.7 378.6,224.7 380.1,224.7 381.6,224.7 383.1,224.7 384.6,224.7 386.1,224.7 387.6,224.7 389.1,224.7 390.6,237.3 392.1,248.7 393.6,259.5 395.1,269.3 396.6,278.1 398.1,285.9 399.6,293.4 401.1,299.9 402.6,305.7 404.1,310.8 405.6,315.7 407.1,320.1 408.6,323.9 410.1,327.4 411.6,330.6 413.1,333.3 414.6,335.8 416.2,338.0 417.7,339.9 419.2,341.5 420.7,343.2 422.2,344.7 423.7,345.9 425.2,347.0 426.7,348.1 428.2,349.0 429.7,349.8 431.2,350.6 432.7,351.4 434.2,352.1 435.7,352.6 437.2,352.9 438.7,353.2 440.2,353.5 441.7,353.7 443.2,354.3 444.7,354.6 446.2,354.9 447.7,355.0 449.2,355.2 450.7,355.5 452.2,355.8 453.7,356.0 455.2,356.2 456.7,356.3 458.2,356.5 459.7,356.6 461.2,356.6 462.7,356.9 464.2,356.9 465.8,356.9 467.3,357.1 468.8,357.1 470.3,357.0 471.8,357.1 473.3,357.2 474.8,357.2 476.3,357.4 477.8,357.5 479.3,357.7 480.8,357.6 482.3,357.6 483.8,357.6 485.3,357.7 486.8,357.7 488.3,357.8 489.8,358.0 491.3,358.0 492.8,358.1 494.3,358.1 495.8,358.1 497.3,358.2 498.8,358.2 500.3,358.2 501.8,358.3 503.3,358.4 504.8,358.4 506.3,358.3 507.8,358.4 509.3,358.3 510.8,358.1 512.3,357.8 513.8,357.7 515.4,357.6 516.9,357.6 518.4,357.4 519.9,357.2 521.4,357.5 522.9,357.5 524.4,357.4 525.9,357.4 527.4,357.5 528.9,357.5 530.4,357.4 531.9,357.3 533.4,357.4 534.9,357.3 536.4,357.3 537.9,357.4 539.4,357.7 540.9,348.3 542.4,339.6 543.9,329.4 545.4,319.3 546.9,309.9 548.4,301.4 549.9,293.7 551.4,286.8 552.9,280.6 554.4,275.0 555.9,270.0 557.4,265.4 558.9,261.4 560.4,257.7 561.9,254.4 563.4,251.4 564.9,248.7 566.5,246.3 568.0,244.2 569.5,242.2 571.0,240.5 572.5,238.9 574.0,237.5 575.5,236.2 577.0,235.0 578.5,234.0 580.0,233.1 581.5,232.2 583.0,231.5 584.5,230.8 586.0,230.2 587.5,229.6 589.0,229.1 590.5,228.7 592.0,228.3 593.5,227.9 595.0,227.6 596.5,227.3 598.0,227.0 599.5,226.8 601.0,226.6 602.5,226.4 604.0,226.2 605.5,226.1 607.0,225.9 608.5,225.8 610.0,225.7 611.5,225.6 613.0,225.5 614.5,225.4 616.1,225.3 617.6,225.3 619.1,225.2 620.6,225.2 622.1,225.1 623.6,225.1 625.1,225.0 626.6,225.0 628.1,225.0 629.6,224.9 631.1,224.9 632.6,224.9 634.1,224.9 635.6,224.8 637.1,224.8 638.6,224.8 640.1,224.8 641.6,224.8 643.1,224.8 644.6,224.8 646.1,224.7 647.6,224.7 649.1,224.7 650.6,224.7 652.1,224.7 653.6,224.7 655.1,224.7 656.6,224.7 658.1,224.7 659.6,224.7 661.1,224.7 662.6,224.7 664.1,224.7 665.7,224.7 667.2,224.7 668.7,224.7 670.2,224.7 671.7,224.7 673.2,224.7 674.7,224.7 676.2,224.7 677.7,224.7 679.2,224.7 680.7,224.7 682.2,224.7 683.7,224.7 685.2,224.7 686.7,224.7 688.2,224.7 689.7,224.7 691.2,224.7 692.7,224.7 694.2,224.7 695.7,224.7 697.2,224.7 698.7,224.7 700.2,224.7 701.7,224.7 703.2,224.7 704.7,224.7 706.2,224.7 707.7,224.7 709.2,224.7 710.7,224.7 712.2,224.7 713.7,224.7 715.3,224.7 716.8,224.7 718.3,224.7 719.8,224.7 721.3,224.7 722.8,224.7 724.3,224.7 725.8,224.7 727.3,224.7 728.8,224.7 730.3,224.7 731.8,224.7 733.3,224.7 734.8,224.7 736.3,224.7 737.8,224.7 739.3,224.6 740.8,224.6 742.3,224.6 743.8,224.6 745.3,224.6 746.8,224.7 748.3,224.6 749.8,224.7 751.3,224.7 752.8,224.6 754.3,224.6 755.8,224.6 757.3,224.6 758.8,224.6 760.3,224.6 761.8,224.6 763.3,224.6 764.8,224.6 766.4,224.6 767.9,224.6 769.4,224.6 770.9,224.6 772.4,224.6 773.9,224.6 775.4,224.6 776.9,224.6 778.4,224.6 779.9,224.6 781.4,224.6 782.9,224.6 784.4,224.7 785.9,224.7 787.4,224.7 788.9,224.7 790.4,224.7 791.9,224.7 793.4,224.7 794.9,224.7 796.4,224.7 797.9,224.7 799.4,224.7 800.9,224.7 802.4,224.7 803.9,224.7 805.4,224.7 806.9,224.7 808.4,224.7 809.9,224.7 811.4,224.7 812.9,224.7 814.4,224.7 816.0,224.7 817.5,224.7 819.0,224.7 820.5,224.7 822.0,224.7 823.5,224.7 825.0,224.7 826.5,224.7 828.0,224.7 829.5,224.7 831.0,224.7 832.5,224.7 834.0,224.7 835.5,224.7 837.0,224.7 838.5,224.7 840.0,224.6" fill="none" stroke="#c0392b" stroke-width="2" opacity="0.95"/>
<polyline points="90.0,105.8 91.5,117.6 93.0,128.3 94.5,137.9 96.0,146.6 97.5,154.4 99.0,161.5 100.5,167.8 102.0,173.5 103.5,178.6 105.0,183.2 106.5,187.3 108.0,191.1 109.5,194.4 111.0,197.4 112.5,200.2 114.0,202.6 115.6,204.8 117.1,206.8 118.6,208.6 120.1,210.2 121.6,211.7 123.1,213.0 124.6,214.1 126.1,215.2 127.6,216.1 129.1,217.0 130.6,217.8 132.1,218.5 133.6,219.1 135.1,219.6 136.6,220.1 138.1,220.6 139.6,221.0 141.1,221.4 142.6,221.7 144.1,222.0 145.6,222.2 147.1,222.5 148.6,222.7 150.1,222.9 151.6,223.1 153.1,223.2 154.6,223.4 156.1,223.5 157.6,223.6 159.1,223.7 160.6,223.8 162.1,223.9 163.6,224.0 165.2,224.1 166.7,224.1 168.2,224.2 169.7,224.2 171.2,224.3 172.7,224.3 174.2,224.3 175.7,224.4 177.2,224.4 178.7,224.5 180.2,224.5 181.7,224.5 183.2,224.5 184.7,224.5 186.2,224.6 187.7,224.6 189.2,224.6 190.7,224.6 192.2,224.6 193.7,224.6 195.2,224.6 196.7,224.6 198.2,224.6 199.7,224.6 201.2,224.6 202.7,224.6 204.2,224.6 205.7,224.6 207.2,224.6 208.7,224.6 210.2,224.6 211.7,224.6 213.2,224.6 214.7,224.6 216.3,224.6 217.8,224.6 219.3,224.6 220.8,224.6 222.3,224.6 223.8,224.6 225.3,224.6 226.8,224.6 228.3,224.7 229.8,224.7 231.3,224.7 232.8,224.7 234.3,224.7 235.8,224.7 237.3,224.7 238.8,224.7 240.3,224.7 241.8,224.7 243.3,224.7 244.8,224.7 246.3,224.7 247.8,224.7 249.3,224.6 250.8,224.7 252.3,224.7 253.8,224.7 255.3,224.7 256.8,224.7 258.3,224.7 259.8,224.7 261.3,224.7 262.8,224.7 264.3,224.7 265.9,224.7 267.4,224.7 268.9,224.7 270.4,224.7 271.9,224.7 273.4,224.7 274.9,224.7 276.4,224.7 277.9,224.7 279.4,224.7 280.9,224.7 282.4,224.7 283.9,224.7 285.4,224.7 286.9,224.7 288.4,224.7 289.9,224.7 291.4,224.7 292.9,224.7 294.4,224.7 295.9,224.7 297.4,224.7 298.9,224.7 300.4,224.7 301.9,224.7 303.4,224.7 304.9,224.7 306.4,224.7 307.9,224.7 309.4,224.6 310.9,224.6 312.4,224.7 313.9,224.6 315.5,224.7 317.0,224.7 318.5,224.7 320.0,224.7 321.5,224.7 323.0,224.7 324.5,224.7 326.0,224.7 327.5,224.7 329.0,224.7 330.5,224.7 332.0,224.7 333.5,224.7 335.0,224.7 336.5,224.7 338.0,224.7 339.5,224.7 341.0,224.7 342.5,224.7 344.0,224.7 345.5,224.7 347.0,224.7 348.5,224.7 350.0,224.7 351.5,224.7 353.0,224.7 354.5,224.7 356.0,224.7 357.5,224.7 359.0,224.7 360.5,224.7 362.0,224.7 363.5,224.7 365.1,224.7 366.6,224.7 368.1,224.7 369.6,224.7 371.1,224.7 372.6,224.7 374.1,224.7 375.6,224.7 377.1,224.7 378.6,224.7 380.1,224.7 381.6,224.7 383.1,224.7 384.6,224.7 386.1,224.7 387.6,224.7 389.1,224.7 390.6,237.3 392.1,248.7 393.6,259.6 395.1,269.4 396.6,278.2 398.1,286.0 399.6,293.3 401.1,299.7 402.6,305.7 404.1,310.9 405.6,315.5 407.1,319.9 408.6,323.7 410.1,327.1 411.6,330.4 413.1,333.2 414.6,335.7 416.2,337.8 417.7,339.9 419.2,341.7 420.7,343.3 422.2,344.7 423.7,346.1 425.2,347.3 426.7,348.4 428.2,349.4 429.7,350.1 431.2,351.1 432.7,352.0 434.2,352.7 435.7,353.3 437.2,353.5 438.7,354.0 440.2,354.3 441.7,354.7 443.2,355.1 444.7,355.3 446.2,355.4 447.7,355.5 449.2,355.9 450.7,356.1 452.2,356.5 453.7,356.6 455.2,356.6 456.7,356.7 458.2,356.6 459.7,356.6 461.2,356.8 462.7,356.9 464.2,356.9 465.8,357.1 467.3,357.1 468.8,357.0 470.3,357.3 471.8,357.3 473.3,357.2 474.8,357.3 476.3,357.4 477.8,357.1 479.3,356.8 480.8,356.9 482.3,356.8 483.8,357.0 485.3,357.0 486.8,356.9 488.3,357.0 489.8,357.1 491.3,357.2 492.8,357.4 494.3,357.5 495.8,357.6 497.3,357.6 498.8,357.7 500.3,357.6 501.8,357.5 503.3,357.5 504.8,357.6 506.3,357.7 507.8,357.7 509.3,357.8 510.8,358.1 512.3,358.2 513.8,358.4 515.4,358.4 516.9,358.6 518.4,358.5 519.9,358.4 521.4,358.4 522.9,358.4 524.4,358.2 525.9,358.1 527.4,357.9 528.9,357.9 530.4,358.0 531.9,358.0 533.4,357.9 534.9,357.9 536.4,357.8 537.9,357.9 539.4,357.8 540.9,346.7 542.4,338.3 543.9,328.4 545.4,318.4 546.9,309.1 548.4,300.7 549.9,293.1 551.4,286.2 552.9,280.1 554.4,274.5 555.9,269.5 557.4,265.1 558.9,261.0 560.4,257.4 561.9,254.1 563.4,251.2 564.9,248.5 566.5,246.1 568.0,244.0 569.5,242.1 571.0,240.3 572.5,238.8 574.0,237.4 575.5,236.1 577.0,235.0 578.5,233.9 580.0,233.0 581.5,232.2 583.0,231.4 584.5,230.7 586.0,230.1 587.5,229.6 589.0,229.1 590.5,228.7 592.0,228.2 593.5,227.9 595.0,227.6 596.5,227.3 598.0,227.0 599.5,226.8 601.0,226.6 602.5,226.4 604.0,226.2 605.5,226.1 607.0,225.9 608.5,225.8 610.0,225.7 611.5,225.6 613.0,225.5 614.5,225.4 616.1,225.3 617.6,225.3 619.1,225.2 620.6,225.2 622.1,225.1 623.6,225.1 625.1,225.0 626.6,225.0 628.1,225.0 629.6,224.9 631.1,224.9 632.6,224.9 634.1,224.9 635.6,224.8 637.1,224.8 638.6,224.8 640.1,224.8 641.6,224.8 643.1,224.8 644.6,224.8 646.1,224.8 647.6,224.8 649.1,224.7 650.6,224.7 652.1,224.7 653.6,224.7 655.1,224.7 656.6,224.7 658.1,224.7 659.6,224.7 661.1,224.7 662.6,224.7 664.1,224.7 665.7,224.7 667.2,224.7 668.7,224.7 670.2,224.7 671.7,224.7 673.2,224.7 674.7,224.7 676.2,224.7 677.7,224.7 679.2,224.7 680.7,224.7 682.2,224.7 683.7,224.7 685.2,224.7 686.7,224.7 688.2,224.7 689.7,224.7 691.2,224.7 692.7,224.7 694.2,224.7 695.7,224.7 697.2,224.7 698.7,224.7 700.2,224.7 701.7,224.7 703.2,224.7 704.7,224.7 706.2,224.7 707.7,224.7 709.2,224.7 710.7,224.7 712.2,224.7 713.7,224.7 715.3,224.7 716.8,224.7 718.3,224.7 719.8,224.7 721.3,224.7 722.8,224.7 724.3,224.7 725.8,224.7 727.3,224.7 728.8,224.7 730.3,224.7 731.8,224.7 733.3,224.7 734.8,224.7 736.3,224.7 737.8,224.7 739.3,224.7 740.8,224.7 742.3,224.7 743.8,224.7 745.3,224.7 746.8,224.7 748.3,224.7 749.8,224.7 751.3,224.7 752.8,224.7 754.3,224.7 755.8,224.7 757.3,224.7 758.8,224.7 760.3,224.7 761.8,224.7 763.3,224.7 764.8,224.7 766.4,224.7 767.9,224.7 769.4,224.7 770.9,224.7 772.4,224.7 773.9,224.7 775.4,224.7 776.9,224.7 778.4,224.7 779.9,224.7 781.4,224.7 782.9,224.7 784.4,224.7 785.9,224.7 787.4,224.7 788.9,224.7 790.4,224.7 791.9,224.7 793.4,224.7 794.9,224.6 796.4,224.7 797.9,224.6 799.4,224.7 800.9,224.7 802.4,224.7 803.9,224.7 805.4,224.7 806.9,224.7 808.4,224.7 809.9,224.7 811.4,224.7 812.9,224.7 814.4,224.7 816.0,224.7 817.5,224.7 819.0,224.7 820.5,224.7 822.0,224.7 823.5,224.7 825.0,224.7 826.5,224.7 828.0,224.7 829.5,224.7 831.0,224.7 832.5,224.7 834.0,224.7 835.5,224.7 837.0,224.7 838.5,224.7 840.0,224.7" fill="none" stroke="#3498db" stroke-width="2" opacity="0.95"/>
<rect x="864" y="76" width="22" height="4" fill="#c0392b" rx="2"/>
<circle cx="875" cy="78" r="4" fill="#c0392b"/>
<text x="896" y="82" fill="#111827" font-size="12">Full (Proposed)</text>
<rect x="864" y="98" width="22" height="4" fill="#3498db" rx="2"/>
<circle cx="875" cy="100" r="4" fill="#3498db"/>
<text x="896" y="104" fill="#111827" font-size="12">DT only</text>
</svg>
