<svg xmlns="http://www.w3.org/2000/svg" viewBox="0 0 880 520" width="880" height="520" font-family="'Inter','Segoe UI','Helvetica Neue',Arial,sans-serif" font-size="14" role="img" aria-label="Baseline comparison — Utility, Detection, Normalised Rate">
<rect width="100%" height="100%" fill="#ffffff"/>
<text x="440.0" y="30" text-anchor="middle" font-size="18" font-weight="700" fill="#111827">Baseline comparison — Utility, Detection, Normalised Rate</text>
<rect x="90" y="70" width="670" height="380" fill="#fbfcfe" stroke="#1f2937" stroke-width="1.2"/>
<line x1="90" y1="450.0" x2="760" y2="450.0" stroke="#e5e7eb" stroke-width="1"/>
<text x="82" y="454.0" text-anchor="end" fill="#111827" font-size="12">0</text>
<line x1="90" y1="360.9" x2="760" y2="360.9" stroke="#e5e7eb" stroke-width="1"/>
<text x="82" y="364.9" text-anchor="end" fill="#111827" font-size="12">0.20</text>
<line x1="90" y1="271.8" x2="760" y2="271.8" stroke="#e5e7eb" stroke-width="1"/>
<text x="82" y="275.8" text-anchor="end" fill="#111827" font-size="12">0.40</text>
<line x1="90" y1="182.7" x2="760" y2="182.7" stroke="#e5e7eb" stroke-width="1"/>
<text x="82" y="186.7" text-anchor="end" fill="#111827" font-size="12">0.60</text>
<line x1="90" y1="93.6" x2="760" y2="93.6" stroke="#e5e7eb" stroke-width="1"/>
<text x="82" y="97.6" text-anchor="end" fill="#111827" font-size="12">0.80</text>
<line x1="145.8" y1="70" x2="145.8" y2="450" stroke="#e5e7eb" stroke-width="1"/>
<text x="145.8" y="468" text-anchor="middle" fill="#111827" font-size="12">Static ISAC</text>
<line x1="257.5" y1="70" x2="257.5" y2="450" stroke="#e5e7eb" stroke-width="1"/>
<text x="257.5" y="468" text-anchor="middle" fill="#111827" font-size="12">Reactive</text>
<line x1="369.2" y1="70" x2="369.2" y2="450" stroke="#e5e7eb" stroke-width="1"/>
<text x="369.2" y="468" text-anchor="middle" fill="#111827" font-size="12">DT only</text>
<line x1="480.8" y1="70" x2="480.8" y2="450" stroke="#e5e7eb" stroke-width="1"/>
<text x="480.8" y="468" text-anchor="middle" fill="#111827" font-size="12">DT + QA</text>
<line x1="592.5" y1="70" x2="592.5" y2="450" stroke="#e5e7eb" stroke-width="1"/>
<text x="592.5" y="468" text-anchor="middle" fill="#111827" font-size="12">DT + Trust</text>
<line x1="704.2" y1="70" x2="704.2" y2="450" stroke="#e5e7eb" stroke-width="1"/>
<text x="704.2" y="468" text-anchor="middle" fill="#111827" font-size="12">Full (Proposed)</text>
<text x="425.0" y="492" text-anchor="middle" fill="#111827" font-size="13" font-weight="600"></text>
<text transform="translate(38,260.0) rotate(-90)" text-anchor="middle" fill="#111827" font-size="13" font-weight="600">Value</text>
<rect x="96.7" y="245.7" width="30.8" height="204.3" fill="#1f4e79" rx="2"/>
<text x="112.1" y="241.7" text-anchor="middle" fill="#111827" font-size="11" font-weight="600">0.46</text>
<rect x="208.4" y="250.7" width="30.8" height="199.3" fill="#1f4e79" rx="2"/>
<text x="223.7" y="246.7" text-anchor="middle" fill="#111827" font-size="11" font-weight="600">0.45</text>
<rect x="320.0" y="233.7" width="30.8" height="216.3" fill="#1f4e79" rx="2"/>
<text x="335.4" y="229.7" text-anchor="middle" fill="#111827" font-size="11" font-weight="600">0.49</text>
<rect x="431.7" y="179.1" width="30.8" height="270.9" fill="#1f4e79" rx="2"/>
<text x="447.1" y="175.1" text-anchor="middle" fill="#111827" font-size="11" font-weight="600">0.61</text>
<rect x="543.4" y="222.0" width="30.8" height="228.0" fill="#1f4e79" rx="2"/>
<text x="558.7" y="218.0" text-anchor="middle" fill="#111827" font-size="11" font-weight="600">0.51</text>
<rect x="655.0" y="173.0" width="30.8" height="277.0" fill="#1f4e79" rx="2"/>
<text x="670.4" y="169.0" text-anchor="middle" fill="#111827" font-size="11" font-weight="600">0.62</text>
<rect x="129.5" y="221.3" width="30.8" height="228.7" fill="#27ae60" rx="2"/>
<text x="144.8" y="217.3" text-anchor="middle" fill="#111827" font-size="11" font-weight="600">0.51</text>
<rect x="241.1" y="243.4" width="30.8" height="206.6" fill="#27ae60" rx="2"/>
<text x="256.5" y="239.4" text-anchor="middle" fill="#111827" font-size="11" font-weight="600">0.46</text>
<rect x="352.8" y="135.1" width="30.8" height="314.9" fill="#27ae60" rx="2"/>
<text x="368.2" y="131.1" text-anchor="middle" fill="#111827" font-size="11" font-weight="600">0.71</text>
<rect x="464.5" y="128.0" width="30.8" height="322.0" fill="#27ae60" rx="2"/>
<text x="479.8" y="124.0" text-anchor="middle" fill="#111827" font-size="11" font-weight="600">0.72</text>
<rect x="576.1" y="139.1" width="30.8" height="310.9" fill="#27ae60" rx="2"/>
<text x="591.5" y="135.1" text-anchor="middle" fill="#111827" font-size="11" font-weight="600">0.70</text>
<rect x="687.8" y="129.0" width="30.8" height="321.0" fill="#27ae60" rx="2"/>
<text x="703.2" y="125.0" text-anchor="middle" fill="#111827" font-size="11" font-weight="600">0.72</text>
<rect x="162.2" y="245.4" width="30.8" height="204.6" fill="#c0392b" rx="2"/>
<text x="177.6" y="241.4" text-anchor="middle" fill="#111827" font-size="11" font-weight="600">0.46</text>
<rect x="273.9" y="246.9" width="30.8" height="203.1" fill="#c0392b" rx="2"/>
<text x="289.3" y="242.9" text-anchor="middle" fill="#111827" font-size="11" font-weight="600">0.46</text>
<rect x="385.5" y="269.8" width="30.8" height="180.2" fill="#c0392b" rx="2"/>
<text x="400.9" y="265.8" text-anchor="middle" fill="#111827" font-size="11" font-weight="600">0.40</text>
<rect x="497.2" y="251.2" width="30.8" height="198.8" fill="#c0392b" rx="2"/>
<text x="512.6" y="247.2" text-anchor="middle" fill="#111827" font-size="11" font-weight="600">0.45</text>
<rect x="608.9" y="267.4" width="30.8" height="182.6" fill="#c0392b" rx="2"/>
<text x="624.3" y="263.4" text-anchor="middle" fill="#111827" font-size="11" font-weight="600">0.41</text>
<rect x="720.5" y="234.4" width="30.8" height="215.6" fill="#c0392b" rx="2"/>
<text x="735.9" y="230.4" text-anchor="middle" fill="#111827" font-size="11" font-weight="600">0.48</text>
<rect x="784" y="76" width="22" height="4" fill="#1f4e79" rx="2"/>
<circle cx="795" cy="78" r="4" fill="#1f4e79"/>
<text x="816" y="82" fill="#111827" font-size="12">Utility (unitless)</text>
<rect x="784" y="98" width="22" height="4" fill="#27ae60" rx="2"/>
<circle cx="795" cy="100" r="4" fill="#27ae60"/>
<text x="816" y="104" fill="#111827" font-size="12">Detection P_d</text>
<rect x="784" y="120" width="22" height="4" fill="#c0392b" rx="2"/>
<circle cx="795" cy="122" r="4" fill="#c0392b"/>
<text x="816" y="126" fill="#111827" font-size="12">Rate / 200 Mbps</text>
</svg>
